<?xml version="1.0" encoding="UTF-8" standalone="no"?>
<!-- Created with Inkscape (http://www.inkscape.org/) -->

<svg
   xmlns:dc="http://purl.org/dc/elements/1.1/"
   xmlns:cc="http://creativecommons.org/ns#"
   xmlns:rdf="http://www.w3.org/1999/02/22-rdf-syntax-ns#"
   xmlns:svg="http://www.w3.org/2000/svg"
   xmlns="http://www.w3.org/2000/svg"
   xmlns:sodipodi="http://sodipodi.sourceforge.net/DTD/sodipodi-0.dtd"
   xmlns:inkscape="http://www.inkscape.org/namespaces/inkscape"
   width="308.16949mm"
   height="300mm"
   viewBox="0 0 308.16949 300"
   version="1.1"
   id="svg6977"
   inkscape:version="0.92.4 (5da689c313, 2019-01-14)"
   sodipodi:docname="ET 1.svg">
  <defs
     id="defs6971" />
  <sodipodi:namedview
     id="base"
     pagecolor="#ffffff"
     bordercolor="#666666"
     borderopacity="1.0"
     inkscape:pageopacity="0.0"
     inkscape:pageshadow="2"
     inkscape:zoom="0.35"
     inkscape:cx="-129.06103"
     inkscape:cy="564.072"
     inkscape:document-units="mm"
     inkscape:current-layer="layer1"
     showgrid="false"
     inkscape:window-width="1920"
     inkscape:window-height="1017"
     inkscape:window-x="-8"
     inkscape:window-y="-8"
     inkscape:window-maximized="1" />
  <metadata
     id="metadata6974">
    <rdf:RDF>
      <cc:Work
         rdf:about="">
        <dc:format>image/svg+xml</dc:format>
        <dc:type
           rdf:resource="http://purl.org/dc/dcmitype/StillImage" />
        <dc:title></dc:title>
      </cc:Work>
    </rdf:RDF>
  </metadata>
  <g
     inkscape:label="Layer 1"
     inkscape:groupmode="layer"
     id="layer1"
     transform="translate(-7.6890632,1.9226253)">
    <path
       style="fill:#000000;stroke-width:0.27585763"
       d="m 128.04466,-1.9207375 c -1.7585,-0.0187 -3.5028,0.10011 -5.2264,0.41966 -2.0934,0.40041 -9.5075,3.22685 -16.47469,6.28023 C 93.476563,10.418043 84.359863,15.857053 61.659562,31.434004 35.860563,49.454524 9.2959632,87.245205 7.6890632,122.97985 c 0.2740001,0.25302 0.7649001,-0.78516 1.0912,-2.30686 0.3262,-1.52159 0.8344,-3.47156 1.1287,-4.33394 0.2944998,-0.86238 1.4478998,-4.70115 2.5637998,-8.53042 2.7314,-9.371805 4.6449,-14.719137 7.4935,-20.947386 2.2222,-4.859361 5.8088,-10.23947 6.7093,-10.064321 0.4364,0.0849 -2.12,5.64579 -6.2403,13.574641 -4.026,7.747101 -5.8777,13.720506 -8.5825,27.683466 -2.5717998,13.27756 -3.6351998,22.56435 -3.0398998,28.6759 1.7806998,18.28533 1.9685998,30.5479 8.0819998,44.71416 0.2569,-0.73264 -0.133,-3.77924 -0.8672,-6.77225 -0.7731,-3.15173 -1.0489,-5.63593 -0.6548,-5.90158 0.3942,-0.26572 0.9127,0.80185 1.2338,2.53598 1.152,6.22737 2.8576,12.47093 3.4354,12.58338 0.8496,0.16569 0.6611,-3.38235 -0.4161,-7.83943 -0.5033,-2.08405 -0.7262,-4.25498 -0.4968,-4.82354 0.8069,-1.99771 1.8573,-1.18746 2.7869,2.14887 0.6308,2.26427 1.0914,3.02759 1.4011,2.32497 0.2537,-0.57506 0.259,-1.7015 0,-2.50463 -0.6793,-2.20278 0.1097,-1.635 1.9886,1.43379 1.0069,1.64453 1.9077,2.50567 2.2418,2.14407 0.3071,-0.3325 -0.119,-4.12472 -0.9467,-8.42793 -0.8272,-4.30323 -1.3634,-8.5475 -1.1915,-9.4312 0.4544,-2.33416 1.0396,-0.98524 2.4999,5.77013 1.6779,7.76078 5.2995,18.87415 6.966301,21.37429 0.7269,1.09011 2.212398,3.86297 3.3006,6.16327 2.227498,4.7091 3.042399,5.73452 3.341601,4.1989 0.318299,-1.63527 -4.0513,-11.13613 -5.228802,-11.36909 -0.576599,-0.1141 -1.273101,-0.62757 -1.547101,-1.14076 -1.229799,-2.30191 -4.572999,-17.4543 -4.728399,-18.8998 -0.3498,-3.15101 3.8141,8.27226 4.695699,9.97387 3.572002,6.89291 5.899902,12.86632 11.624702,22.8551 9.281401,16.1947 11.170399,20.84526 16.1891,26.85019 4.595,5.49793 6.185501,7.73616 4.262699,6.00169 -4.1808,-3.77119 -7.188901,-6.79793 -8.384399,-8.43756 -2.458101,-3.37186 -2.656901,-1.46681 -0.231,2.20677 2.4091,3.647 12.9287,14.92073 15.463099,16.57123 0.816002,0.53154 4.027001,2.58616 7.1364,4.56548 3.109402,1.97925 9.191501,6.30297 13.514401,9.60847 7.855106,6.00665 16.116696,11.05244 24.210296,14.78777 2.3627,1.09046 6.035,2.32151 8.1615,2.73616 l 3.866,0.75367 -3.3909,-1.47722 c -5.4366,-2.36638 -13.1872,-6.95201 -13.8749,-8.20965 -0.3481,-0.63693 -1.2862,-1.56218 -2.0838,-2.05724 -2.793,-1.73398 -0.7453,-1.32694 3.7927,0.75369 9.9564,4.56488 13.8569,5.78048 26.1422,8.14813 12.9885,2.50307 19.9365,3.13076 32.7385,2.96045 18.5637,-0.24701 23.4937,-3.56941 43.8351,-10.02691 3.6267,-1.15134 6.5481,-1.88315 6.4914,-1.62674 -0.203,0.91802 -11.5321,5.26288 -20.2263,7.75745 -9.0744,2.60363 -15.2384,4.86196 -14.848,5.44092 0.1213,0.17947 1.6078,-0.0861 3.3052,-0.59206 4.9242,-1.46701 10.5916,-2.50259 11.105,-2.02829 0.2597,0.24008 0.5243,0.16872 0.5885,-0.1568 0.1377,-0.70233 8.098,-3.23696 9.3817,-2.98701 0.4884,0.0952 2.1623,-0.37298 3.7213,-1.04066 3.1166,-1.33445 7.4183,-1.75236 7.2136,-0.70062 -0.1657,0.85445 3.2357,0.66376 4.7863,-0.2677 0.6578,-0.39524 1.6776,-0.62357 2.267,-0.50887 0.5893,0.1148 1.5518,-0.30938 2.138,-0.94179 0.586,-0.63241 3.8835,-2.73886 7.3271,-4.68125 38.07541,-21.46778 61.59531,-61.017 69.1344,-86.26651 4.3285,-14.49701 10.04051,-43.17928 0.95372,-74.0328 -0.86223,-3.60567 -0.93901,-3.27951 -1.88471,-6.23684 0.669,6.63793 1.59869,11.70072 2.27679,18.1558 -1.55861,-8.11923 -4.8932,-16.3731 -6.03919,-23.162615 -0.40111,-2.72007 -3.5269,-9.826712 -8.01921,-18.230562 -5.14979,-9.63464 -17.5955,-26.434571 -25.1715,-33.981779 -6.192,-6.16867 -16.6975,-14.426699 -17.3019,-13.599951 -0.182,0.24765 1.994,2.394659 4.8344,4.77166 4.8642,4.07089 14.48669,14.17909 22.1122,23.231361 1.86941,2.219019 5.443,7.59087 7.94311,11.93704 2.5002,4.346149 4.95501,8.53726 5.4556,9.314249 0.50099,0.777232 0.68389,1.448541 0.40859,1.49166 -0.2754,0.0427 -0.92569,-0.762879 -1.44589,-1.790719 -0.52012,-1.027901 -3.11312,-4.660529 -5.76292,-8.072191 -4.46558,-5.750179 -6.63469,-9.254458 -4.06238,-6.56363 0.60669,0.634701 0.3983,0.118779 -0.46551,-1.146778 -0.90239,-1.322041 -2.57929,-2.858302 -3.94089,-3.609221 -1.66359,-0.917311 -2.4348,-1.71776 -2.5853,-2.686712 -0.11901,-0.759309 -1.2755,-2.38302 -2.57341,-3.609199 l -2.36109,-2.230898 0.99218,1.980067 0.99391,1.98007 -1.9404,-1.796769 c -1.0668,-0.98797 -5.2238,-4.45022 -9.237,-7.694761 -6.8809,-5.562467 -7.4096,-5.887389 -9.2613,-5.688129 -3.1407,0.337979 -4.9825,-0.166849 -7.6043,-2.083771 -2.7213,-1.989939 -5.0301,-2.575909 -5.8328,-1.478428 -1.2893,1.763329 2.0119,4.21327 5.3685,3.984239 2.6355,-0.179919 4.563,0.704159 4.4582,2.04398 -0.033,0.424842 0.5869,1.03464 1.3772,1.35541 1.7201,0.697961 14.361,12.187751 16.4096,14.915582 0.7932,1.056309 3.6095,4.582408 6.25971,7.83463 8.33699,10.230529 15.3063,21.71519 19.08799,31.455465 2.29989,5.92403 1.57941,5.27214 -1.0963,-0.99245 -4.9358,-11.557086 -13.50319,-23.652577 -21.3102,-30.084386 -4.079,-3.36042 -3.8513,-2.982899 2.63969,4.385799 4.08832,4.641411 6.2429,7.853651 10.11981,15.07839 5.9295,11.050017 9.45121,17.979327 12.51591,28.146507 2.78529,12.34704 6.01249,24.93695 3.61619,36.79272 -0.9952,-8.03571 -0.6032,-24.83032 -4.7534,-28.43354 1.50821,13.98793 2.047,29.86289 -0.35578,43.1815 -8.22691,31.87033 -40.48372,76.65947 -91.49652,87.00208 -15.2745,3.09684 -27.6009,4.99549 -41.3134,2.0283 22.431,-0.19298 45.199,-4.20313 62.4116,-14.45011 1.9468,-1.12777 5.5841,-0.35663 5.4711,-3.31016 -0.023,-0.60585 0.7248,-1.62793 0.7248,-1.62793 2.3564,-2.15299 2.7968,-4.62608 8.0866,-5.81718 4.3122,-0.97101 6.9264,-2.10253 5.863,-4.21578 -1.2521,-2.48838 -2.6231,-3.854 -4.3329,-3.95771 -16.8478,-1.02192 -27.2693,-1.81728 -48.1651,0.29424 -4.4246,0.4471 3.9434,1.73346 4.7982,1.72079 3.6491,-0.0502 3.1262,-0.14025 6.8542,0.65962 10.969,2.35345 20.157,1.12028 28.355,4.11326 -15.2958,-1.34087 -28.694,0.33033 -43.22,-0.35211 -0.4597,-0.021 -5.0584,0.0889 0.726,1.46996 7.7589,1.85235 14.8524,0.47224 21.6238,2.66501 -5.8424,2.19668 -14.6457,1.87286 -20.7966,5.72915 -2.6306,1.64904 -5.8747,2.62207 -8.8296,2.04037 -1.9126,-0.37649 -3.848,-0.6791 -5.799,-0.93336 1.5753,-1.4316 3.1196,-2.9307 4.8514,-3.99148 3.1537,-1.579 3.9546,-6.42957 4.4967,-10.42727 0.8218,-4.00611 -1.9686,-7.89101 0.058,-11.62232 0.5197,-3.93248 2.0066,-7.28464 4.6969,-8.47373 3.0749,-1.99242 6.7113,-4.37492 8.0759,-8.96936 1.7723,-4.04092 2.9958,-9.71856 5.9605,-11.99612 0.6238,-1.68196 1.6319,0.75872 2.6784,0.7597 1.055,-2.43529 2.8269,-3.41332 4.2916,-4.92241 1.9873,1.23572 2.6654,-2.0599 4.3269,-1.68101 3.3917,3.331 2.8032,-7.38244 0.147,-2.44915 0.1587,-1.68002 -1.5481,-2.1751 -3.1365,-0.31232 -0.2973,-3.08987 -3.5493,0.3165 -4.2328,-2.72169 -3.0317,0.16195 -4.2127,-3.01886 -7.3137,-2.65172 -2.1453,0.43851 -1.7987,-3.54036 -2.5961,-3.6056 -1.0344,3.27839 -1.3824,0.27902 -2.8894,0.40878 -0.3136,-2.15982 -1.2057,-0.57134 -2.4394,0.16405 0.1936,-3.23429 -2.4267,-3.15346 -3.508,-0.72955 0.2807,-2.84814 -2.0279,-1.40301 -3.0821,0.0483 -0.4901,-0.69982 -1.2828,-1.01548 -2.6085,-1.48685 2.8033,-3.72674 -2.2591,-3.10938 -3.7719,-3.87933 1.1992,-2.30375 -0.5717,-3.41754 -2.3263,-2.73011 -1.569,2.91661 -3.2632,-0.89456 -5.1333,-2.08981 0.1307,-4.74847 -1.868,2.01054 -3.4235,-0.51128 0.023,-4.05714 -3.4699,-0.95485 -3.8951,-4.11207 -1.5751,0.0163 -3.4821,0.91589 -5.1877,-0.45823 -2.3106,1.91027 -4.4694,-0.81781 -5.7785,-3.98063 -1.3707,-3.84299 -0.7521,-9.2805 2.6154,-10.73719 3.0789,0.50965 5.8637,3.24267 8.5449,5.52778 3.2075,1.7374 6.8415,0.27645 10.2246,0.94179 -0.3068,-0.73457 -3.8853,-1.27744 -0.5775,-2.08618 1.2178,-2.54699 6.2746,-2.77668 5.6242,0.66203 -2.0126,0.66505 -2.3904,0.73886 -0.1026,0.65842 2.7916,0.76272 5.491,1.67279 8.6123,1.24809 1.4001,1.66215 5.456,-2.99401 4.486,0.41362 2.2717,-1.05746 5.0201,1.4518 7.7972,1.32766 2.5704,1.22438 5.5422,1.98245 8.088,0.39434 -1.3135,-1.01487 -3.9116,-2.90106 -5.2252,-4.91277 -2.8784,0.33157 -3.2975,-6.42591 -6.6503,-4.80184 2.0654,-2.61341 -1.4449,-4.21909 -1.9114,-6.55759 -0.1307,-1.95689 -0.8405,-5.52236 -2.1151,-6.95673 1.416,-1.17402 0.2333,-2.15076 -1.0804,-3.2125 -2.0979,-1.01223 1.7657,-3.3448 -0.4523,-4.48226 -1.6626,-1.75817 -2.9472,-4.65268 -4.9454,-5.15273 -0.4193,-2.27012 -1.8881,-0.97404 -2.9169,-2.22847 -0.2471,-2.55013 -1.752,-1.064 -3.2826,-0.17618 -3.0625,-1.50333 -5.6292,-4.27274 -8.8389,-4.6318 -1.1981,-3.57433 -2.8297,1.72348 -4.2389,-1.27221 -1.3819,1.46795 -2.4105,0.86597 -4.0771,0.21468 0.044,-3.16202 -1.4006,-4.19099 -3.2642,-5.249215 -0.3666,-3.738962 -3.1007,-0.14281 -3.9987,-1.5387 1.2032,-1.90391 0.2618,-2.478262 -1.265,-1.77024 -0.7169,-1.373071 -1.6899,-2.302171 -3.3645,-1.855851 2.2916,-3.002341 -1.8372,-1.135361 -3.0219,-1.567651 2.2612,-3.045619 -2.0855,-0.638839 -3.4307,-0.533 -0.9605,-2.7491 -3.1169,-0.290989 -4.4713,1.336111 -1.5499,-2.843559 -2.3062,2.108899 -4.1423,0.809149 -0.8235,-1.868638 -3.2835,-0.01871 -4.9694,-0.785019 -3.113,0.977961 -5.2176,3.985149 -7.3716,7.135196 -2.8217,1.97167 -4.6228,6.03987 -7.696,7.31127 -3.1993,1.13993 -0.079,3.43572 1.6629,2.63485 2.9533,-1.86556 -0.7848,1.6334 1.534,2.38524 -0.9115,2.57619 0.023,3.8139 2.2054,3.59475 -1.5767,2.77973 0.8578,1.84078 2.3914,0.87186 2.6663,-0.40926 5.7554,0.12461 7.4246,3.79732 1.8797,4.30466 5.6903,5.68585 8.452,8.71853 2.7664,2.47682 4.1148,7.17333 5.716,10.90844 2.1291,3.65435 -0.2856,9.74861 2.9615,12.47606 1.5891,0.80064 2.5144,7.01533 0.4956,3.18233 -1.8175,0.63509 -3.5775,1.00127 -5.3094,-0.40639 -3.2149,3.53352 0.042,-6.12945 -2.6229,-2.61798 -1.9632,-0.40529 -3.0985,2.97186 -5.3795,2.97371 -2.2283,-1.30029 -3.8429,4.12684 -0.9392,2.65536 -1.8993,1.86241 -4.2473,6.97718 -7.1943,4.70295 -3.0126,1.31786 -3.4968,8.34926 -7.6719,7.39448 -1.0756,2.83162 -2.6113,-0.0359 -4.0398,1.54836 0.1166,5.26757 -4.1549,-0.17151 -5.8388,2.6879 -1.7886,4.19304 -6.3635,1.11034 -7.6899,4.61371 0.5111,3.30691 -4.583496,2.841 -3.346497,3.70328 2.631497,1.07156 -0.8025,1.14072 -0.661998,2.81813 -1.502302,2.56686 -4.7581,5.15028 -7.248401,6.88078 -2.150099,2.64237 -5.653701,4.65539 -6.363499,8.86082 -0.445701,4.40003 1.4986,1.22909 3.047299,0.35092 0.1377,3.7307 2.778299,-2.08851 2.324899,0.88753 1.542902,-1.63827 4.444701,-0.26999 5.604901,-3.18354 2.0944,0.19229 3.209499,-2.21769 5.151496,-3.01228 1.9774,-2.72005 4.2174,-6.1147 7.1595,-7.1545 0.34,3.19423 1.6643,-0.69074 3.2196,-1.72564 0.6723,2.09794 2.4364,-2.65511 4.4281,-2.08858 1.3245,-2.68561 2.8886,-1.79865 4.8945,-1.845 2.131,2.55192 4.3329,3.43381 7.0279,1.47841 3.2665,-1.392 6.4105,-1.44679 9.7497,-0.52817 3.0115,0.43851 6.0432,-0.46349 8.8609,-1.26617 0.065,3.32704 2.929,1.59412 4.7583,2.4383 1.5698,1.98606 3.6723,5.49844 4.8754,8.6305 -2.2521,1.93034 -4.7795,3.49581 -7.1074,5.38788 -1.672,-0.14374 -3.4578,-1.28482 -5.1865,-1.26377 -2.6332,-3.56376 0.6352,-4.31145 2.8989,-4.059 0.8966,0.17151 5.0836,-2.39271 3.7563,-2.14165 -2.6682,-1.08539 -5.5225,-1.29515 -8.2434,-2.28755 -2.7967,1.48533 -6.3414,1.66345 -7.948,-2.45879 -3.213,0.009 -7.3511,-1.15419 -9.9173,1.97402 -2.995,1.52839 -6.9137,-1.11272 -9.2431,2.79524 -2.1914,-1.25859 -3.9859,1.71027 -6.0655,1.08047 -2.07989,1.40098 -4.11239,3.59067 -6.2742,5.26007 2.0801,-0.2355 5.1914,-1.6105 7.6937,-0.94783 2.2012,2.91024 4.8572,-0.66743 6.8456,1.95354 2.8887,1.28015 4.4214,8.41502 7.485,6.8916 4.721,-0.473 9.4212,-1.44408 14.1487,-1.85224 2.9689,0.14795 5.4889,-2.55696 8.4144,-3.07017 2.8974,-1.50088 5.6591,-3.55676 8.873,-2.96647 3.8287,-0.3274 5.6229,5.38438 8.8019,7.07131 3.0375,1.11197 6.69,1.81074 8.8499,4.98632 2.9314,3.15619 0.6401,8.4824 0.14,12.5219 -0.8545,4.6061 -3.2725,7.43489 -6.2235,9.52888 -2.6985,1.80289 -6.007,0.30476 -8.527,3.30293 -3.2004,-0.8699 -6.0104,0.64587 -9.1791,1.32525 -1.9086,-0.2923 -3.5199,1.06654 -4.5763,3.06899 -0.068,-0.001 -0.1377,-0.002 -0.2054,-0.005 -3.8836,-0.11341 -11.3185,-3.10273 -11.3183,-3.10273 3.7642,-2.67921 6.6086,-1.4318 11.3701,-3.27277 3.1708,-1.22585 5.9046,-0.12111 7.1969,-0.54868 1.6976,-0.56173 4.0832,-3.04028 1.2757,-2.65173 -11.3538,1.57126 -22.3071,-1.17701 -34.3133,-0.56798 2.4567,-1.61088 6.1822,-1.23962 9.7821,-1.29513 8.8203,-0.13581 17.3923,-1.0713 25.6854,-2.9749 2.1604,-0.49592 2.2124,-1.78918 0.133,-1.69908 -11.8147,0.51143 -22.7958,-0.9323 -31.9644,-0.13395 -32.298096,2.81314 -25.697097,-2.08673 -39.374597,-14.104 -2.5482,-0.35638 4.759502,8.98784 5.558001,11.48966 -4.054001,-3.15677 -9.588899,-9.08225 -11.8443,-13.41183 -3.3558,-4.97163 -6.618301,-10.36754 -7.2498,-11.99132 -0.718701,-1.84834 -1.508602,-2.88741 -2.115101,-2.78077 -0.659,0.11597 -1.145299,-0.84731 -1.522798,-3.01471 -0.305502,-1.75122 -0.965603,-3.54974 -1.4678,-3.99628 -0.705401,-0.62697 -0.706102,-0.89684 0,-1.189 0.6809,-0.28175 0.5715,-0.81804 -0.428001,-2.09824 -0.7381,-0.94566 -1.230201,-2.29355 -1.0937,-2.99541 0.1377,-0.70167 -0.068,-2.62405 -0.453401,-4.27245 -1.1446,-4.88286 -3.025899,-14.69236 -3.1692,-16.52182 -0.4279,-5.46659 -1.084598,-7.51958 -2.438299,-7.64048 -1.1082,-0.0992 -1.535901,-0.93203 -2.209099,-4.29896 -0.753801,-3.77103 -0.663202,-5.01799 0.926197,-12.86317 1.9167,-9.46052 4.512803,-17.59718 6.587702,-20.64472 0.726199,-1.06665 1.424199,-2.5861 1.552099,-3.37647 0.357,-2.20766 -3.2126,3.18935 -4.8153,7.27871 -1.453499,3.70961 -2.968699,5.45847 -2.4539,2.83382 0.561002,-2.86168 4.384702,-12.26152 6.4261,-15.79707 1.102802,-1.90971 2.0549,-3.73444 2.1176,-4.05418 0.2007,-1.03324 -1.393499,-0.0439 -2.310399,1.43258 -0.489601,0.78854 -1.172599,1.37657 -1.518399,1.3096 -0.626602,-0.12205 5.132099,-8.463725 6.918198,-10.022105 1.927,-1.681141 6.468501,-7.454802 6.667301,-8.476141 0.350301,-1.798839 8.071499,-8.341069 14.058099,-11.911719 3.133701,-1.868832 5.610801,-3.52579 5.5051,-3.68277 -0.104999,-0.157052 -1.782598,-0.131141 -3.726198,0.0567 -4.580702,0.442913 -7.7158,2.323262 -15.107301,9.065832 -3.323601,3.031739 -6.1565,5.59607 -6.2949,5.697789 -0.1377,0.101981 -0.537901,-0.0786 -0.8874,-0.40155 -0.449201,-0.414989 -0.243602,-0.98774 0.699299,-1.955938 0.733902,-0.753102 1.218801,-1.67554 1.078101,-2.050002 -0.393401,-1.041339 1.961599,-3.68231 6.005401,-6.732458 2.011,-1.51679 3.362299,-2.814093 3.002698,-2.884472 -0.996098,-0.193918 -5.9813,3.95546 -10.255999,8.53767 -3.582201,3.83956 -5.874501,5.012352 -5.4411,2.785581 0.1026,-0.531741 0.623699,-0.88135 1.1553,-0.77779 0.646599,0.12578 1.093999,-0.457771 1.3481,-1.763001 0.5325,-2.734778 5.5251,-9.039529 6.772299,-8.552119 0.654402,0.255749 2.312101,-1.17792 5.030901,-4.34722 4.323299,-5.03967 10.425999,-9.74353 11.649001,-8.979019 0.4069,0.254518 1.389298,-0.268521 2.183699,-1.163662 1.065501,-1.20043 2.133499,-1.60514 4.0699,-1.53992 1.4435,0.0485 3.604796,-0.197649 4.803096,-0.548679 1.198,-0.351081 3.52831,-0.495732 5.1767,-0.32198 1.6486,0.17385 4.0645,0.351848 5.3687,0.395539 1.9382,0.0651 2.6892,0.47393 4.1168,2.242931 l 1.7474,2.165771 5.9257,-0.587251 c 3.2595,-0.322612 7.7613,-0.732401 10.0029,-0.90924 4.8507,-0.382741 12.3826,-2.402081 18.1497,-4.866939 3.7087,-1.585172 8.7167,-4.615162 12.6207,-7.447553 -0.53,-0.493559 -1.2977,-1.0018 -2.3791,-1.576078 -2.0096,-1.067152 -3.0739,-2.46099 -3.0739,-2.965259 0,-0.118552 0.554,0.111537 1.2312,0.510079 2.0285,1.194089 2.5323,1.396918 4.2267,1.7823 0.5941,0.13512 1.2246,0.377309 1.8353,0.666858 l -1.9065,1.510962 c 0.6905,0.61642 0.9887,1.20582 0.9887,1.864299 0,1.125572 -0.8193,1.55294 -2.6166,1.365059 -1.2006,-0.125539 -1.3835,-0.0987 -1.1565,0.174781 0.3134,0.37759 2.012,0.84654 3.0677,0.84654 0.4007,0 1.0652,0.17408 1.4773,0.38708 0.4119,0.213051 1.014,0.47457 1.3374,0.58003 1.3215,0.43102 3.8475,-0.150519 4.9851,-1.148008 0.2264,-0.197882 0.9113,-0.488011 1.5243,-0.643933 l 1.1142,-0.28339 -0.743,-0.164039 c -0.6783,-0.149579 -1.1973,-0.734359 -0.9079,-1.023789 0.065,-0.0656 1.5193,-0.188082 3.2305,-0.27132 3.0744,-0.149582 4.1663,-0.438541 4.1663,-1.104601 0,-0.206049 -0.2217,-0.215378 -0.8767,-0.035 -0.8098,0.223549 -2.5919,0.16591 -5.8642,-0.19065 -1.0869,-0.118312 -1.3124,-0.0632 -1.9522,0.47513 -1.0657,0.89666 -2.295,0.84319 -2.916,-0.125312 -0.4688,-0.731729 -1.5838,-1.551048 -2.8107,-2.15252 0,0.0021 0.023,0.005 0.023,0.009 1.6951,-1.34125 3.0187,-2.56322 3.6562,-3.459689 3.5768,-5.030182 3.5271,-11.560321 -0.1284,-16.879941 -3.82649,-5.647385 -4.17809,-14.4137253 -10.45249,-19.0975855 -2.0566,-2.1111599 -2.6439,-2.34858 -8.4026,-3.4042199 -7.57,-0.24586013 -15.4512,-2.9333801 -23.0711,-3.0183201 z m 8.6173,8.4050201 c 33.5176,0.4407299 30.5118,44.0608614 0.7801,43.2634714 -33.97849,-0.91126 -28.0686,-43.6223015 -0.7801,-43.2634714 z m -14.6021,14.5489804 c -0.04,-0.005 -0.063,10e-4 -0.061,0.021 0.023,0.32455 1.8147,1.56104 3.1495,2.16936 1.5779,0.71906 2.211,1.29149 2.2563,2.03916 0.044,0.724419 -0.4662,1.03109 -1.6304,0.980379 -0.7773,-0.0338 -0.8947,-0.007 -0.7379,0.15915 0.217,0.23078 1.3282,0.465701 2.0078,0.424471 0.2578,-0.0163 0.6923,0.0707 0.9658,0.19181 0.2735,0.12111 0.6718,0.265509 0.884,0.32077 0.8673,0.22588 2.4698,-0.248219 3.1631,-0.934559 0.1376,-0.13604 0.5679,-0.34839 0.9562,-0.472702 l 0.7055,-0.226578 -0.4835,-0.0761 c -0.4427,-0.0698 -0.7997,-0.427061 -0.6247,-0.624641 0.04,-0.0446 0.97,-0.178739 2.0679,-0.299059 1.9728,-0.216321 2.6647,-0.445591 2.6386,-0.874281 0,-0.13254 -0.1517,-0.12974 -0.5655,0.0117 -0.5126,0.17548 -1.6617,0.20792 -3.7817,0.10617 -0.7042,-0.0338 -0.8477,0.009 -1.2384,0.38105 -0.6508,0.61868 -1.444,0.63292 -1.8813,0.0338 -0.5063,-0.69378 -1.9926,-1.469 -3.1932,-1.66651 -1.1054,-0.18178 -2.4933,-0.67458 -3.8454,-1.36385 -0.3386,-0.17268 -0.6293,-0.28633 -0.7514,-0.30028 z m 13.4528,14.146209 c -0.051,0.007 -0.1097,0.049 -0.1797,0.119481 -0.1843,0.183409 -0.5243,1.1708 -0.756,2.1947 -0.5293,2.33848 -0.3083,3.59151 0.9091,5.159989 0.9484,1.221372 1.0275,1.56174 0.3799,1.619491 -0.6938,0.0618 -0.023,0.556972 1.2771,0.928539 0.7612,0.21912 2.1149,0.296802 3.8165,0.21935 1.4505,-0.0658 3.3503,0.01871 4.2207,0.19041 1.4139,0.277511 1.5462,0.265002 1.2349,-0.11807 -0.1914,-0.235939 -0.69,-0.60887 -1.107,-0.828447 l -0.7587,-0.399151 0.9334,-0.799491 c 0.9421,-0.806789 2.1338,-2.49377 1.9693,-2.789219 -0.2588,-0.464841 -3.6837,1.052798 -5.0913,2.256218 -1.0727,0.917081 -1.2225,0.970891 -2.0402,0.738003 -0.4856,-0.138142 -1.1693,-0.510461 -1.5196,-0.827231 -0.8517,-0.770472 -2.6583,-4.7933 -2.9218,-6.50576 -0.133,-0.869011 -0.2147,-1.17752 -0.3666,-1.158851 z m 42.6557,18.534441 c -0.07,-0.005 -0.161,0.0397 -0.2749,0.118071 -0.2966,0.20465 -1.0062,1.468659 -1.576,2.80852 -1.3021,3.06002 -1.3115,4.824291 -0.037,7.266649 0.9904,1.90192 1.0149,2.386121 0.1167,2.304449 -0.9623,-0.0875 -0.1563,0.756391 1.5121,1.583323 0.9845,0.487918 2.8136,0.930499 5.155,1.246878 1.9959,0.26966 4.5656,0.85698 5.7111,1.30598 1.8603,0.729232 2.0446,0.744792 1.7149,0.14468 -0.203,-0.36952 -0.7913,-1.001811 -1.3061,-1.404858 l -0.9357,-0.731981 1.4736,-0.85979 c 1.4858,-0.86741 3.529,-2.875812 3.3778,-3.31979 -0.238,-0.698521 -5.2876,0.523949 -7.5067,1.817259 -1.6911,0.985559 -1.9096,1.02222 -2.9678,0.50166 -0.628,-0.308999 -1.4685,-0.98584 -1.8678,-1.50496 -0.9714,-1.2626 -2.4406,-7.201361 -2.3757,-9.60365 v 0 c 0.033,-1.219111 0,-1.66047 -0.2124,-1.672559 z m -44.3692,9.10563 c -0.2217,0.244901 2.0752,2.20794 3.6139,3.08705 1.8501,1.05699 2.5685,1.84512 2.5685,2.816961 0,0.92774 -0.6337,1.291299 -2.015,1.15643 -0.921,-0.0901 -1.0596,-0.0644 -0.8827,0.165209 0.2723,0.35334 1.338,0.669231 2.2658,0.67047 0.403,5.29e-4 0.8942,0.120642 1.0914,0.266512 0.196,0.145849 0.6044,0.358939 0.9045,0.47389 1.1938,0.457348 2.6541,0.199988 3.8431,-0.676492 0.3869,-0.285218 1.0302,-0.626309 1.4302,-0.75851 0.711,-0.234919 0.7171,-0.24329 0.2413,-0.377421 -0.5461,-0.153778 -0.7946,-0.598828 -0.4609,-0.826047 0.1214,-0.0821 1.0991,-0.183412 2.1744,-0.224251 1.7189,-0.0656 1.9546,-0.11644 1.9546,-0.41966 0,-0.289481 -0.2264,-0.363289 -1.4083,-0.461849 -0.7752,-0.0646 -1.8437,-0.175951 -2.3732,-0.247222 -0.8392,-0.112709 -1.0181,-0.0728 -1.3917,0.30511 -0.2357,0.23858 -0.7211,0.50509 -1.0793,0.59209 -0.6263,0.152141 -0.6956,0.11131 -1.804,-1.07084 -1.0102,-1.077429 -1.3197,-1.283039 -2.5035,-1.66532 -2.2987,-0.742389 -3.6669,-1.340119 -4.8957,-2.138021 -0.6501,-0.42209 -1.2235,-0.723087 -1.2734,-0.668067 z m 75.0371,7.307652 c -0.023,0.005 -0.03,0.014 -0.033,0.0327 -0.049,0.620998 3.0226,3.449277 5.3916,4.962218 2.8,1.78825 3.8484,3.043251 3.7334,4.473821 -0.112,1.38611 -1.1623,1.832089 -3.3573,1.422961 -1.4659,-0.27328 -1.6948,-0.258022 -1.4421,0.101269 0.3486,0.49602 2.3947,1.24137 3.6947,1.345769 0.4935,0.0397 1.2949,0.320352 1.7812,0.623451 0.4863,0.303098 1.2017,0.683469 1.5893,0.84532 1.5847,0.661529 4.753,0.194378 6.2525,-0.921301 0.2975,-0.22122 1.1703,-0.50887 1.9403,-0.64032 l 1.3999,-0.238768 -0.8984,-0.276151 c -0.8209,-0.25132 -1.4015,-1.0228 -1.0165,-1.350571 0.086,-0.074 1.8881,-0.0812 4.0036,-0.014 3.8007,0.119941 5.1751,-0.128809 5.2407,-0.949049 0.023,-0.253752 -0.2527,-0.28665 -1.0755,-0.12904 -1.0196,0.19531 -3.2084,-0.0523 -7.2027,-0.815171 -1.3271,-0.253399 -1.6106,-0.20792 -2.4516,0.39189 -1.4011,0.998749 -2.9092,0.812861 -3.578,-0.441341 -0.7743,-1.45234 -3.3862,-3.324159 -5.611,-4.021629 -2.0483,-0.642178 -4.5492,-1.948911 -6.9289,-3.620069 -0.6952,-0.488151 -1.2888,-0.80726 -1.4326,-0.781399 z m 85.71191,1.942679 c -0.3904,-0.12437 0.82158,2.80656 2.69398,6.51297 3.39882,6.728799 4.19571,7.9794 4.29282,6.731249 0.084,-1.068779 -6.2088,-12.996788 -6.9868,-13.244219 z m -112.57291,4.672799 c -0.026,-0.0021 -0.04,0.0021 -0.04,0.0163 0.023,0.48645 2.8415,2.53293 4.5282,3.287239 4.4171,1.97545 5.2047,5.06831 1.2311,4.834371 -0.7721,-0.0455 -1.3998,0.005 -1.3952,0.11108 0.023,0.348091 1.227,0.69205 2.6999,0.766929 0.7955,0.0404 1.6764,0.201851 1.9571,0.359342 0.281,0.157519 0.8718,0.37901 1.3134,0.492 1.4234,0.364239 3.1813,-0.007 4.5968,-0.971931 0.7031,-0.479311 1.6432,-0.989491 2.0885,-1.133541 l 0.8092,-0.26166 -0.6342,-0.141168 c -0.5976,-0.132781 -1.0853,-0.70571 -0.8345,-0.98039 0.063,-0.0684 1.5357,-0.256011 3.274,-0.41602 2.7503,-0.25319 3.2191,-0.354952 3.6153,-0.788641 l 0.4546,-0.498041 -2.5265,0.127871 c -1.3894,0.0709 -3.1776,0.0665 -3.9745,-0.0117 -1.3612,-0.13208 -1.4967,-0.10105 -2.2297,0.51249 -1.258,1.053071 -1.983,0.936371 -3.6515,-0.587259 -1.1983,-1.094311 -1.6981,-1.37601 -3.0908,-1.74249 -0.9135,-0.240519 -2.2303,-0.588121 -2.9264,-0.771771 -0.6961,-0.18365 -2.1767,-0.791408 -3.2898,-1.3506 -0.9738,-0.48927 -1.7894,-0.838851 -1.9751,-0.852548 z m -22.7152,2.345451 c 0,0.363189 1.9858,2.030939 3.2027,2.678258 3.1874,1.695241 3.6175,4.036251 0.6719,3.659863 -0.5724,-0.073 -1.0424,-0.0672 -1.0443,0.01169 0,0.259908 0.8779,0.577131 1.9704,0.707859 0.59,0.0707 1.2377,0.236241 1.4387,0.367781 0.2006,0.131609 0.6296,0.32635 0.9525,0.432919 1.041,0.343562 2.3678,0.156581 3.4707,-0.489601 0.5476,-0.320947 1.2734,-0.653428 1.6122,-0.737999 l 0.6163,-0.15308 -0.4656,-0.137438 c -0.4382,-0.129281 -0.7724,-0.58012 -0.5717,-0.771771 0.049,-0.0476 1.157,-0.11294 2.4589,-0.14351 2.06,-0.0485 2.4133,-0.100111 2.7302,-0.40277 l 0.364,-0.3473 -1.8871,-0.0338 c -1.0377,-0.01871 -2.369,-0.111778 -2.958,-0.20979 -1.0064,-0.167551 -1.1079,-0.151681 -1.6848,0.267731 -0.9899,0.719749 -1.5235,0.595559 -2.6877,-0.623451 -0.8364,-0.875519 -1.1953,-1.11062 -2.2129,-1.4543 -0.6679,-0.22565 -1.6305,-0.551411 -2.1392,-0.723541 -0.5089,-0.172209 -1.5793,-0.699238 -2.3792,-1.172098 -0.8,-0.472872 -1.4562,-0.799561 -1.458,-0.72594 z m 82.8647,4.89467 c -0.075,0.01871 -0.154,0.0943 -0.2448,0.212109 -0.2382,0.307591 -0.5554,1.8391 -0.7043,3.404222 -0.3399,3.574518 0.2287,5.393459 2.3359,7.490949 1.6414,1.63331 1.8251,2.124049 0.8741,2.33339 -1.0188,0.22425 0.086,0.828981 2.0732,1.134721 1.1725,0.18038 3.1992,0.038 5.7122,-0.40155 2.1419,-0.374701 4.9786,-0.609841 6.3042,-0.52215 2.1532,0.142338 2.3469,0.0985 1.8113,-0.41121 -0.3297,-0.313891 -1.1401,-0.77238 -1.8015,-1.018961 l -1.2024,-0.448601 1.2337,-1.36507 c 1.2454,-1.37813 2.692,-4.112178 2.3912,-4.519639 -0.473,-0.641091 -5.2691,2.26695 -7.1303,4.32309 -1.4184,1.566921 -1.6302,1.675541 -2.8892,1.48566 -0.7474,-0.11271 -1.8348,-0.535681 -2.4154,-0.93938 -1.4123,-0.9819 -4.8638,-6.61226 -5.582,-9.10563 -0.3645,-1.265311 -0.5442,-1.708711 -0.7659,-1.652071 z m 61.68581,6.97484 c -0.18899,0.0352 0.30498,1.757519 1.1612,4.02041 1.58398,4.184971 2.19559,5.339646 2.56249,4.838011 0.2681,-0.36653 -3.07729,-8.413251 -3.67541,-8.841551 -0.023,-0.014 -0.035,-0.01871 -0.049,-0.0163 z m -101.58961,2.36713 c -0.033,-0.005 -0.054,-0.005 -0.063,0.007 -0.3377,0.34499 3.1477,3.1101 5.4819,4.348409 2.8063,1.488842 3.8961,2.598447 3.8961,3.967367 0,1.3068 -0.9603,1.81912 -3.0555,1.62913 -1.3974,-0.12671 -1.6095,-0.0908 -1.3411,0.23265 0.4133,0.49772 2.0316,0.94235 3.4391,0.94422 0.6112,7.9e-4 1.3565,0.16964 1.6559,0.37502 0.2992,0.20535 0.9159,0.50614 1.371,0.66806 1.811,0.6442 4.0255,0.28196 5.8293,-0.95266 0.5869,-0.40176 1.5635,-0.88219 2.1705,-1.06841 1.0785,-0.33091 1.0874,-0.34286 0.3654,-0.53178 -0.8282,-0.21679 -1.2046,-0.84364 -0.6982,-1.16369 0.182,-0.11574 1.6671,-0.25827 3.298,-0.31593 2.6077,-0.0922 2.9654,-0.16382 2.9654,-0.5909 0,-0.40774 -0.3423,-0.51235 -2.1368,-0.65117 -1.1759,-0.091 -2.7963,-0.247065 -3.5997,-0.347295 -1.2727,-0.15868 -1.5446,-0.10314 -2.1114,0.429295 -0.3577,0.3361 -1.0942,0.7107 -1.6376,0.83326 -0.95,0.21421 -1.0548,0.15634 -2.7361,-1.508555 -1.5327,-1.51763 -2.0017,-1.80697 -3.7973,-2.345432 -3.4873,-1.045721 -5.5641,-1.88717 -7.4284,-3.011109 -0.8629,-0.520211 -1.636,-0.909421 -1.8666,-0.946621 z m -68.8957,25.673276 c 1.0127,-0.0117 2.3463,0.68001 2.0607,1.99332 2.289,-0.3302 2.6682,1.96245 4.2412,4.16392 0.1657,0.64814 2.4192,4.2785 0.4872,3.12324 -2.347,-1.95741 -5.0542,-4.10895 -6.9254,-7.06167 -1.5677,-1.49355 -0.8765,-2.20754 0.1353,-2.21881 z m 6.1633,2.1103 c 1.2839,1.08978 5.0843,-1.03361 4.5702,2.42985 2.8065,-0.38391 6.3896,-1.81922 8.7957,0.50285 -0.57,-2.63476 2.6281,-1.37381 2.987,-0.25444 -0.7129,1.93134 -2.4271,5.59479 -2.9158,1.60985 -0.6032,1.43167 -1.2314,5.43455 -3.5852,5.83165 -1.4792,2.05336 -3.2557,0.86086 -4.5859,-0.80192 -3.2207,-0.98199 -3.4447,-6.28717 -5.266,-9.31784 z m 17.6781,4.40507 c 0.1003,0.0163 0.047,0.40813 -0.2436,1.43381 -1.424,4.76954 2.4077,-1.00575 3.7131,-0.39915 4.152,0.99968 0.3948,4.92745 -1.5124,6.16688 -1.504,1.80587 -3.5957,1.77143 -5.3769,0.96592 -3.4382,-0.33561 -1.0513,-3.26281 0.4896,-4.98512 0.9238,0.12228 2.6261,-3.22957 2.9302,-3.18234 z m 6.5927,2.55768 c 0.382,-0.032 0.7889,0.78726 1.2661,2.08137 2.7221,0.0945 0.3319,4.6982 2.6976,3.95892 2.5694,-1.4949 5.7307,1.92315 6.9723,4.68967 3.782,1.52491 -0.7124,5.50745 -2.9169,5.20819 -1.7378,1.11048 -3.7614,0.53123 -5.5328,-0.0446 -2.7937,-1.93386 -5.4877,-4.04509 -7.7032,-7.09784 -0.9469,-2.42171 3.1998,-4.70878 4.3474,-6.99895 0.2893,-1.23177 0.5724,-1.77196 0.8695,-1.79676 z m -8.7307,10.6154 c 0.9458,-0.0383 -0.5797,1.61392 -1.0046,2.51305 l -0.3232,0.52698 -0.2844,0.46064 c -2.5707,4.53936 -1.703,-4.23657 1.0465,-3.37286 0.2465,-0.0814 0.4306,-0.12228 0.5657,-0.12788 z M 52.664764,164.94098 c 0.8167,-0.0733 1.608701,1.60876 2.967799,6.11503 0.8963,2.97133 1.155301,3.32201 1.5821,2.14647 0.555202,-1.52997 2.4682,-1.63069 2.173002,-0.11457 -0.3395,1.74424 2.331198,11.42077 4.5329,16.42292 7.301298,16.5892 11.970998,23.43057 28.301,41.45588 0.637698,0.70402 1.1889,0.62974 1.012698,-0.41605 -1.1859,-4.42824 -0.1446,-2.40514 1.467601,-0.23755 0.646099,0.86807 2.053,1.97435 2.827801,2.71926 0.844198,0.83111 7.070505,8.38413 -0.5993,3.24988 -2.324701,-0.45254 -22.867602,-22.94982 -29.116102,-31.88599 -3.254798,-4.65499 -3.670599,-5.54957 -5.003099,-10.74923 -0.427702,-1.66992 -1.357601,-4.40915 -2.065599,-6.08731 -0.708502,-1.6782 -1.495603,-4.09154 -1.7511,-5.36499 -0.345602,-1.72422 -0.788702,-2.2968 -1.730301,-2.23689 -1.917002,-0.0646 -2.631101,-7.37661 -3.926401,-10.07757 -1.389899,-2.89778 -1.578898,-4.43632 -1.025099,-4.80306 0.118999,-0.0791 0.2354,-0.12577 0.3521,-0.13627 z m 104.759996,3.96494 c 3.6092,2.17207 5.4851,1.40285 8.3267,1.46033 2.6334,0.0532 4.5191,3.92382 7.468,2.61919 2.1032,1.21348 0.655,0.82542 -0.6235,1.26617 -1.4438,0.8464 -3.4821,0.8131 -4.9467,0.0506 -2.3489,-0.77951 -5.5365,-1.6154 -8.042,-1.025 -1.7476,0.41187 -5.05,-2.97826 -2.1825,-4.37133 z m -24.8533,8.50993 c 1.3565,0.72767 6.7155,-1.13337 4.2641,2.49496 0.2364,0.54283 2.166,-0.1155 3.1738,0.60054 0.2334,2.40848 1.1952,-0.37159 1.833,0.92975 4.2533,-0.65218 0,3.15765 -2.0911,2.15732 -3.5677,0.19135 -6.9877,-1.97946 -10.373,0.5161 v -0.002 l -0.4473,0.14351 -0.4462,0.14725 c -2.0306,3.17273 -7.5774,-3.57753 -3.304,-3.80216 2.2385,-3.25508 5.3979,0.28588 7.3907,-3.18473 z m 66.1728,11.8273 c 1.3313,1.63865 0.054,8.0219 -1.7485,9.78333 -2.3018,4.17116 -3.9824,-6.6445 -2.2633,-6.20547 0.4828,-2.65276 1.9919,-3.67179 4.0118,-3.57786 z m -30.4665,1.53147 c 1.0428,-0.0905 1.6092,1.659 3.3138,0.62585 0.2476,2.66732 1.1752,1.04472 2.2225,0.12298 1.2668,2.06218 3.927,6.58094 1.8593,9.35887 -2.3401,1.08975 -5.6397,2.26398 -7.2727,-1.14196 -0.9275,-2.07187 -5.8125,-9.28681 -1.3844,-8.09148 0.5138,-0.61041 0.9138,-0.84413 1.2615,-0.87428 z m 23.4183,2.40332 c 1.3549,0.13231 2.1338,2.32396 1.6965,4.95739 1.0855,4.65149 -1.8311,7.55183 -4.8622,7.67665 -1.1665,2.7314 -4.0015,-0.021 -5.8508,0.43532 -3.7843,-1.63669 0.2546,-6.56647 1.3602,-9.03929 2.2099,-0.81104 3.5484,-1.96457 5.6798,-2.97492 0.614,-0.67387 1.1899,-0.99959 1.6979,-1.05272 0.096,-0.009 0.189,-0.009 0.2786,-0.002 z m -51.3586,2.45277 c 0.7537,-0.042 1.4106,0.46381 1.9172,2.01384 2.5688,2.67354 0.8308,5.18997 -1.9137,5.70864 -2.7578,1.89025 -5.3851,-0.12367 -7.9179,-1.59055 -3.3939,-1.32278 -1.4059,-4.27943 1.1843,-3.41024 2.2516,1.06409 4.8038,-2.61458 6.7301,-2.72169 z m -23.4846,1.80522 v 10e-4 c 0.047,-0.002 0.096,-0.002 0.147,0.002 0.2758,0.0357 0.624,0.23078 1.0044,0.67168 3.0387,-0.35075 5.0336,4.80982 8.0747,2.61918 1.6955,-2.62593 2.4994,-0.10967 3.8456,1.19744 1.9674,0.43832 3.7635,1.59382 5.4878,2.92909 -1.2023,0.19533 -2.4043,0.39055 -3.6067,0.58604 -2.044,0.2091 -4.0734,0.95436 -6.1115,1.05759 -3.2814,-1.16486 -5.3553,-5.14866 -8.1167,-7.47286 -1.4809,-0.35424 -1.4202,-1.53484 -0.7248,-1.59177 z m -84.707297,2.96769 c -0.4671,-0.007 0,1.74265 1.3553,5.04298 1.4503,3.52724 2.540601,5.10622 2.7578,3.98907 0.112001,-0.57988 -3.0644,-8.2118 -3.6403,-8.74386 -0.2077,-0.19182 -0.3652,-0.28649 -0.4728,-0.28819 z m 11.715,10.17522 v 10e-4 c -0.9798,0.0637 1.027001,4.59782 4.413699,9.91114 3.412803,5.35435 4.601502,6.66234 4.858401,5.34207 0.154001,-0.79137 -8.453501,-15.10725 -9.1671,-15.24598 -0.037,-0.007 -0.072,-0.0117 -0.102601,-0.009 z m -5.943701,5.22752 c -0.04,-0.014 -0.072,-0.0117 -0.100298,0.002 -0.276101,0.12484 0.132998,1.4788 1.360199,3.65022 3.742701,6.62945 15.7709,23.96572 18.1352,26.13872 1.404099,1.29046 4.3131,4.12089 6.466002,6.28988 2.152697,2.16897 4.507198,4.2529 5.222697,4.64626 1.408502,0.77429 2.638701,3.73465 4.383501,2.69516 0.712901,-0.42475 -0.622398,-1.05259 -1.512398,-1.67858 -3.6244,-2.54998 -15.213603,-14.69788 -16.203301,-16.98488 -0.5838,-1.3485 -2.3818,-4.11468 -3.996401,-6.14639 -1.6148,-2.03164 -4.301099,-6.09942 -5.969101,-9.03929 -2.693199,-4.74677 -4.735697,-7.51424 -3.885398,-5.26369 0.632201,1.67304 -0.451699,0.58609 -2.170599,-2.17541 -0.862502,-1.38618 -1.452401,-2.05301 -1.730301,-2.13322 z m -1.689499,7.99621 c -0.226298,-0.0408 -0.873901,0.56581 -1.4409,1.34938 -0.8338,1.15235 -0.88,1.83145 -0.243599,3.55254 1.014298,2.74423 1.940499,3.57032 2.9327,2.61194 0.666498,-0.64361 0.824201,-0.60009 0.978,0.27132 0.481701,2.25092 3.2824,6.37501 4.2242,5.88954 0.2193,-0.14771 -0.3468,-1.29648 -1.256601,-2.55166 -0.9099,-1.25511 -1.5362,-2.88931 -1.3915,-3.63211 0.240599,-1.23556 -2.846501,-7.31633 -3.8023,-7.49095 z m 178.515297,44.0087 c -3.8307,2.50132 -16.6499,5.491 -22.697,6.97124 -6.7866,1.66124 -20.1178,3.71639 -29.209,3.45003 -7.7737,0.0499 -11.6961,-0.0462 -18.6911,-2.83866 3.6993,-1.18795 8.1743,1.3294 11.6765,0.41484 0.8454,-0.22074 4.7676,0.37015 8.8018,0.40757 8.1485,0.0756 17.1444,-1.27813 23.9621,-2.59144 8.3244,-1.60359 18.1604,-5.72153 26.1567,-5.81358 z m -122.509197,5.72315 c -1.576099,-0.18249 8.586697,6.38841 11.873197,7.67664 2.1086,0.82648 4.4827,2.04005 5.2745,2.69637 1.6404,1.35906 6.2072,2.47743 6.3852,1.56282 0.1867,-0.96084 -0.4434,-1.30223 -5.7412,-3.11963 -2.7444,-0.94138 -7.74469,-3.29557 -11.113397,-5.2311 -3.368698,-1.93551 -6.3745,-3.55002 -6.6783,-3.5851 z m 28.757897,3.6695 c -0.1983,-0.007 -0.2833,0.0303 -0.2217,0.12412 0.1727,0.26448 1.5394,0.97877 3.0352,1.58694 3.7526,1.52599 6.6081,2.14239 5.9944,1.29511 -0.4912,-0.67834 -7.4162,-2.95312 -8.8077,-3.00625 z m 1.1313,6.27539 c -2.575,0.005 -0.4277,0.8663 11.1288,4.92847 3.3631,1.18211 9.0088,2.15541 8.7657,1.51218 -0.4691,-1.24119 -4.1278,-2.83496 -9.2756,-4.03971 -2.8147,-0.65863 -5.3743,-1.42479 -5.6882,-1.7027 -0.3138,-0.27792 -1.9132,-0.5714 -3.5525,-0.6536 -0.5472,-0.0266 -1.0107,-0.0455 -1.3782,-0.0446 z m -2.922,3.23784 1.3361,1.56041 c 1.223,1.42822 3.939,3.08895 9.5929,5.8666 4.8995,2.40715 15.4657,3.57526 14.7297,1.62796 -0.1517,-0.40127 0.4432,-0.84934 1.3229,-0.99486 1.1066,-0.18317 -0.9589,-0.89149 -6.6998,-2.30204 -9.6848,-2.37863 -13.1861,-3.33793 -17.29,-4.73673 z m 8.9453,8.22891 c -0.4798,-0.0209 -0.7633,0.0733 -0.7332,0.31112 0.3349,1.58925 4.4064,2.13657 5.4698,2.77477 0.7976,0.31779 0.768,-1.12075 -0.033,-1.54715 -1.6528,-0.8813 -3.6494,-1.49135 -4.7041,-1.53874 z"
       id="path6765-8"
       inkscape:connector-curvature="0"
       inkscape:export-xdpi="200"
       inkscape:export-ydpi="200" />
  </g>
</svg>
