<?xml version="1.0" encoding="UTF-8" standalone="no"?>
<svg
   data-name="Layer 1"
   viewBox="0 0 1.8251107 2.4753482"
   x="0px"
   y="0px"
   version="1.1"
   id="svg48"
   sodipodi:docname="yoga-services-06.svg"
   width="1.8251107"
   height="2.4753482"
   inkscape:version="1.1.2 (0a00cf5339, 2022-02-04)"
   xmlns:inkscape="http://www.inkscape.org/namespaces/inkscape"
   xmlns:sodipodi="http://sodipodi.sourceforge.net/DTD/sodipodi-0.dtd"
   xmlns="http://www.w3.org/2000/svg"
   xmlns:svg="http://www.w3.org/2000/svg"
   xmlns:rdf="http://www.w3.org/1999/02/22-rdf-syntax-ns#"
   xmlns:cc="http://creativecommons.org/ns#"
   xmlns:dc="http://purl.org/dc/elements/1.1/">
  <defs
     id="defs52" />
  <sodipodi:namedview
     id="namedview50"
     pagecolor="#ffffff"
     bordercolor="#666666"
     borderopacity="1.0"
     inkscape:pageshadow="2"
     inkscape:pageopacity="0.0"
     inkscape:pagecheckerboard="0"
     showgrid="false"
     fit-margin-top="0"
     fit-margin-left="0"
     fit-margin-right="0"
     fit-margin-bottom="0"
     inkscape:zoom="102.08"
     inkscape:cx="0.91105016"
     inkscape:cy="1.8563871"
     inkscape:window-width="1920"
     inkscape:window-height="1027"
     inkscape:window-x="0"
     inkscape:window-y="22"
     inkscape:window-maximized="1"
     inkscape:current-layer="svg48" />
  <title
     id="title2">Yoga_Asana_Pose_Practice_health</title>
  <path
     d="m 1.46286,0.00278446 a 0.21959,0.21959 0 0 0 -0.13358,0.12615 0.40868,0.40868 0 0 0 -0.02923,0.07773 0.25891,0.25891 0 0 0 -0.07358,-0.13692 0.28884,0.28884 0 0 0 -0.33284,-0.03093 0.23178,0.23178 0 0 0 -0.0698,0.0648 0.17789,0.17789 0 0 0 -0.02922,0.09249 0.006,0.006 0 0 0 0.01194,0.00119 0.14385,0.14385 0 0 1 0.05642,-0.09377 c 0.08463,-0.02793 0.136,0.064 0.166,0.12806 a 0.29583,0.29583 0 0 0 0.05775,0.08705 c 0.01961,0.0199 0.04726,0.04933 0.07827,0.04342 a 0.0118,0.0118 0 0 0 0.00977,-0.012 0.02929,0.02929 0 0 1 0.01738,-0.00925 c 0.01357,4.7e-4 0.01231,0.02711 0.00981,0.03656 -0.00672,0.0254 -0.03128,0.04108 -0.03731,0.06744 -0.00252,0.011 0.01446,0.01643 0.02016,0.00754 0.02269,-0.03535 0.06032,-0.06879 0.04031,-0.11479 -0.01407,-0.03236 -0.045,-0.02411 -0.06427,-0.00436 a 0.19634,0.19634 0 0 1 -0.03172,-0.03115 0.47692,0.47692 0 0 1 -0.033,-0.04671 c -0.02143,-0.03486 -0.03442,-0.074 -0.05673,-0.10846 a 0.14887,0.14887 0 0 0 -0.12176,-0.07592 l 0.02585,-0.0096 a 0.27054,0.27054 0 0 1 0.18412,0.01 0.19722,0.19722 0 0 1 0.10992,0.12723 0.5067,0.5067 0 0 1 0.01541,0.11293 0.34244,0.34244 0 0 1 -0.01549,0.13085 0.01753,0.01753 0 0 0 0.0306,0.01617 0.26159,0.26159 0 0 0 0.04261,-0.17058 l 0.00537,-0.01243 a 0.43505,0.43505 0 0 0 0.01345,-0.0429 0.5643,0.5643 0 0 1 0.02963,-0.079 0.2781,0.2781 0 0 1 0.04537,-0.06973 0.48582,0.48582 0 0 1 0.07047,-0.05407 0.01546,0.01546 0 0 0 -0.01208,-0.02704 z"
     id="path4" />
  <path
     d="m 0.81609,0.30183446 c -0.00983,8.4e-4 -0.0185,0.00636 -0.0285,0.00693 a 0.07006,0.07006 0 0 1 -0.03018,-0.00463 c -0.00677,-0.00289 -0.01118,0.00673 -0.0058,0.011 0.01863,0.01475 0.0597,0.03306 0.07748,0.00765 a 0.01354,0.01354 0 0 0 -0.013,-0.02095 z"
     id="path6" />
  <path
     d="m 0.96088,0.31069446 a 0.012,0.012 0 0 0 -0.00762,-0.00931 c -0.00976,-0.00415 -0.02079,0.004 -0.02979,0.00759 a 0.06212,0.06212 0 0 1 -0.03028,0.00576 0.00574,0.00574 0 0 0 -0.004,0.01075 0.11347,0.11347 0 0 0 0.01816,0.00783 0.07842,0.07842 0 0 0 0.02221,0.00179 c 0.01362,-8.4e-4 0.0332,-0.00786 0.03132,-0.02441 z"
     id="path8" />
  <path
     d="m 0.83247,0.41692446 c -0.00735,-0.00174 -0.02195,-0.00419 -0.02617,-0.01166 -0.00393,-0.00694 0.00352,-0.0206 0.00743,-0.02579 0.00539,-0.00715 -0.00574,-0.0149 -0.0113,-0.008 a 0.069,0.069 0 0 0 -0.01557,0.02211 0.03033,0.03033 0 0 0 2.2e-4,0.01944 0.05154,0.05154 0 0 0 0.03689,0.02674 c 0.01522,0.00472 0.0235,-0.01928 0.0085,-0.02284 z"
     id="path10" />
  <path
     d="m 0.90725,0.47630446 a 0.21581,0.21581 0 0 1 -0.04064,0.00279 0.08808,0.08808 0 0 0 -0.03884,0.00225 0.01377,0.01377 0 0 0 7.7e-4,0.02525 0.09475,0.09475 0 0 0 0.08667,-0.01253 0.01018,0.01018 0 0 0 -0.00796,-0.01776 z"
     id="path12" />
  <path
     d="m 1.11823,0.43641446 a 0.273,0.273 0 0 1 -0.14236,0.1293 c -0.03706,0.01409 -0.11146,0.03868 -0.14056,-8e-5 a 0.00589,0.00589 0 0 0 -0.00991,0.00609 c 0.02845,0.06142 0.10194,0.051 0.156,0.03219 a 0.246,0.246 0 0 0 0.09534,-0.05983 0.25382,0.25382 0 0 0 0.06585,-0.09862 0.013,0.013 0 0 0 -0.02436,-0.00905 z"
     id="path14" />
  <path
     d="m 0.82407,0.24806446 a 0.03875,0.03875 0 0 0 -0.01928,0 l -0.00806,0.00316 -0.00736,0.00647 a 0.00576,0.00576 0 0 0 0.006,0.00968 l 0.0129,-0.00137 c 0.0047,-2.6e-4 0.00928,8.5e-4 0.014,6.6e-4 0.00965,-3.5e-4 0.01076,-0.01597 0.0018,-0.0186 z"
     id="path16" />
  <path
     d="m 0.98798,0.27843446 a 0.051,0.051 0 0 0 -0.04064,-0.03623 0.12526,0.12526 0 0 0 -0.062,0.00714 0.00537,0.00537 0 0 0 3e-4,0.01059 c 0.01522,0.00158 0.02941,5.7e-4 0.04467,0.00124 a 0.057,0.057 0 0 1 0.04224,0.02418 c 0.00541,0.00552 0.01782,0.00234 0.01543,-0.00692 z"
     id="path18" />
  <path
     d="m 0.93147,0.69841446 a 0.91347,0.91347 0 0 1 -0.03223,0.099 0.66475,0.66475 0 0 1 -0.05217,0.09549 C 0.80995,0.95190446 0.7607,1.0014545 0.71885,1.0569045 a 0.35506,0.35506 0 0 0 -0.08091,0.17539 0.17013,0.17013 0 0 0 0.01427,0.0935 c 0.01349,0.02652 0.04608,0.04548 0.05391,0.07446 a 0.01654,0.01654 0 0 0 0.03266,-0.00516 0.11985,0.11985 0 0 0 -0.038,-0.06883 0.12475,0.12475 0 0 1 -0.0241,-0.09744 0.36373,0.36373 0 0 1 0.09092,-0.17971 1.30165,1.30165 0 0 0 0.12076,-0.16142004 0.38428,0.38428 0 0 0 0.04193,-0.09051 0.47487,0.47487 0 0 0 0.01154,-0.09639 c 3.3e-4,-0.00575 -0.00855,-0.00848 -0.01036,-0.00238 z"
     id="path20" />
  <path
     d="m 1.27347,0.52713446 c -6.4e-4,-0.01173 -0.01609,-0.0126 -0.02222,-0.0052 l -0.02678,0.03167 c 7.3e-4,-0.02261 3.4e-4,-0.0454 0.00287,-0.06646 0.00117,-0.00977 -0.01451,-0.01393 -0.01719,-0.004 a 0.62462,0.62462 0 0 0 -0.01328,0.06616 l -0.00765,0.04048 -0.00357,0.00325 a 0.66231,0.66231 0 0 0 -0.07018,0.07166 0.81547,0.81547 0 0 0 -0.069,0.0898 c -0.01926,0.03087 -0.03264,0.065 -0.0495,0.09719 -0.04764,0.09089 -0.0987,0.21400004 -0.21519,0.22700004 a 0.007,0.007 0 0 0 3.9e-4,0.01372 c 0.12088,0.00767 0.18065,-0.12812004 0.23373,-0.21400004 0.02007,-0.03249 0.0379,-0.06678 0.06,-0.09795 a 1.11736,1.11736 0 0 1 0.07457,-0.09099 c 0.02591,-0.02939 0.05518,-0.05408 0.08315,-0.08126 a 0.10668,0.10668 0 0 0 0.03985,-0.08107 z"
     id="path22" />
  <path
     d="m 1.55668,0.78645446 a 0.10733,0.10733 0 0 0 -0.04975,-0.01976 c 0.00731,-0.025 0.01428,-0.05 0.02031,-0.07538 a 2.47,2.47 0 0 0 0.034,-0.3296 0.88148,0.88148 0 0 0 0.00575,-0.177 0.695,0.695 0 0 0 -0.04452,-0.16727 c -0.00282,-0.00786 -0.01624,-0.004 -0.01417,0.00418 a 0.63967,0.63967 0 0 1 0.02709,0.164 1.40265,1.40265 0 0 1 -0.00945,0.15834 2.4704,2.4704 0 0 1 -0.04169,0.3405 2.89415,2.89415 0 0 0 -0.08292,0.31192 c -0.00617,0.04058 -0.01037,0.0816 -0.01288,0.12265004 l -0.0078,-0.00449 a 0.58922,0.58922 0 0 0 -0.10127,-0.02374 0.236,0.236 0 0 1 -0.11243,-0.07128 0.16612,0.16612 0 0 1 -0.04074,-0.06968 0.23356,0.23356 0 0 1 -0.00188,-0.081 0.3852,0.3852 0 0 1 0.05171,-0.17231 c 0.0049,-0.007 -0.00524,-0.01378 -0.01065,-0.00754 a 0.29,0.29 0 0 0 -0.06362,0.131 0.38469,0.38469 0 0 0 -0.0117,0.1424 0.2372,0.2372 0 0 0 0.18366,0.17867 c 0.03166,0.00706 0.06332,0.01608 0.09488,0.02279 l 0.01416,0.00118 0.00365,-0.00108 c -8.6e-4,0.02937 1.3e-4,0.05873 4.3e-4,0.08808 -0.01,0.00775 -0.01886,0.01735 -0.02949,0.02436 a 0.2406,0.2406 0 0 1 -0.05027,0.02327 c -0.03487,0.0128 -0.07337,0.02313 -0.10931,0.03256 -0.00639,0.00168 -0.005,0.01182 0.00163,0.01029 0.04084,-0.00946 0.08411,-0.00563 0.12517,-0.016 a 0.199,0.199 0 0 0 0.06171,-0.02793 l -0.00208,0.0314 c -0.00125,0.01225 -0.00331,0.02513 -0.00576,0.03842 a 0.01386,0.01386 0 0 0 -0.01087,0.006 0.12733,0.12733 0 0 1 -0.06358,0.03419 0.55375,0.55375 0 0 1 -0.07236,0.02032 0.88567,0.88567 0 0 1 -0.17639,0.0162 c -0.06063,1.3e-4 -0.12112,-0.00536 -0.18174,-8.6e-4 -0.04549,0.00338 -0.08544,0.02316 -0.12982,0.03061 a 0.0078,0.0078 0 0 0 -0.00325,0.01391 0.06831,0.06831 0 0 0 0.05315,0.006 0.54859,0.54859 0 0 1 0.081,-0.011 c 0.06824,-0.00133 0.13617,0.00729 0.2045,0.00565 a 0.81029,0.81029 0 0 0 0.18923,-0.02309 0.246,0.246 0 0 0 0.10015,-0.04784 0.2235,0.2235 0 0 0 0.02769,0.20947 c 0.01316,0.01349 0.03912,7.8e-4 0.02991,-0.01839 a 0.23485,0.23485 0 0 1 -0.02129,-0.13188 c 0.00532,-0.04827 0.01974,-0.0949 0.02335,-0.14341 a 0.73067,0.73067 0 0 0 7.2e-4,-0.07707 0.21825,0.21825 0 0 1 0.025,-0.06137 c 0.0155,-0.024 0.03434,-0.04536 0.05183,-0.06782 a 0.058,0.058 0 0 0 0.01579,-0.04933 0.37786,0.37786 0 0 0 -0.03,-0.0788 0.01,0.01 0 0 0 -0.0182,0.00806 0.32206,0.32206 0 0 1 0.008,0.04673 0.23011,0.23011 0 0 1 0.00821,0.03152 c 0.001,0.0207 -0.024,0.043 -0.03591,0.0584 -0.00822,0.01066 -0.01773,0.023 -0.0265,0.03639 l 9e-5,-0.01161 a 1.23633,1.23633 0 0 1 0.01789,-0.16865 l 0.00632,-0.03364 0.005,0.00356 c 0.00871,0.005 0.02148,0.00882 0.02833,-0.00131 0.0076,-0.01124 -0.00395,-0.02124 -0.01482,-0.0216 l -0.01371,-0.00287 0.01259,-0.04918 c 0.0196,0.02 0.01954,0.05735 0.04686,0.06992 0.012,0.0055 0.02239,-0.00862 0.01822,-0.01936 a 0.10167,0.10167 0 0 0 -0.0146,-0.02158 l -0.01433,-0.02188 a 0.07744,0.07744 0 0 0 -0.03054,-0.0271 l 0.00926,-0.03154 a 0.093,0.093 0 0 1 0.03649,0.056 0.05341,0.05341 0 0 0 0.02589,0.04727 c 0.01359,0.00711 0.02223,-0.01186 0.0156,-0.02183 -0.01229,-0.01848 -0.01144,-0.041 -0.0239,-0.05951 a 0.13287,0.13287 0 0 0 -0.04935,-0.03767 l 0.01027,-0.03393 c 0.0108,0.00559 0.0249,0.0093 0.03227,0.0138 0.022,0.01346 0.01519,0.04314 0.02025,0.06511 0.0025,0.01083 0.02068,0.01559 0.024,0.0024 a 0.0859,0.0859 0 0 0 -0.01847,-0.08934 z"
     id="path24" />
  <path
     d="m 1.07727,0.58900446 a 0.61564,0.61564 0 0 0 -0.06443,0.10071 c -0.00343,0.00567 0.00485,0.01172 0.0085,0.006 0.02144,-0.03338 0.04967,-0.06236 0.07153,-0.09568 a 0.00956,0.00956 0 0 0 -0.0156,-0.01103 z"
     id="path26" />
  <path
     d="m 1.46039,2.0374445 a 0.36164,0.36164 0 0 0 -0.23944,-0.18349 c -0.05842,-0.01584 -0.11858,-0.02206 -0.17763,-0.03471 a 0.89692,0.89692 0 0 1 -0.123,-0.03576 0.18384,0.18384 0 0 0 -0.056,-0.10854 0.3767,0.3767 0 0 1 -0.05045,-0.0643 0.28711,0.28711 0 0 1 -0.02284,-0.08608 c -0.00109,-0.00589 -0.01048,-0.0077 -0.01231,-0.00123 a 0.18771,0.18771 0 0 0 0.0331,0.14335 c 0.01432,0.02289 0.03171,0.04376 0.04619,0.06659 a 0.16952,0.16952 0 0 1 0.01522,0.03126 l -0.00143,-6.1e-4 c -0.056,-0.02466 -0.10621,-0.05984 -0.16082,-0.08721 a 0.8239,0.8239 0 0 0 -0.17244,-0.06463 0.27585,0.27585 0 0 0 -0.15288,-0.00608 0.43556,0.43556 0 0 0 -0.12846,0.08 0.183,0.183 0 0 0 -0.06014,0.14648 c -6e-4,0.06578 0.0234,0.12906 0.024,0.19424 7e-5,0.007 0.011,0.00813 0.01089,0.00109 -5e-4,-0.051 -0.00307,-0.10206 -0.00328,-0.15308 a 0.21348,0.21348 0 0 1 0.03488,-0.146 0.17989,0.17989 0 0 1 0.05553,-0.03891 c 0.02226,-0.01114 0.04358,-0.02487 0.06678,-0.034 a 0.23,0.23 0 0 1 0.14744,0.00636 0.76017,0.76017 0 0 1 0.155,0.06643 c 0.04723,0.0262 0.09134,0.05748 0.13953,0.082 a 1.02072,1.02072 0 0 0 0.32093,0.08922 0.47519,0.47519 0 0 1 0.17187,0.05547 0.54455,0.54455 0 0 1 0.11286,0.09863 c 0.01198,0.01207 0.03498,7.6e-4 0.0269,-0.01649 z"
     id="path28" />
  <path
     d="m 1.59394,2.2676945 -0.018,-0.006 a 0.2804,0.2804 0 0 0 0.028,-0.11816 0.59285,0.59285 0 0 0 -0.01031,-0.15771 0.75749,0.75749 0 0 0 -0.13483,-0.28262 c -0.00519,-0.00742 -0.018,3.6e-4 -0.01369,0.00841 a 0.87292,0.87292 0 0 1 0.03863,0.08134 0.27361,0.27361 0 0 0 -0.13266,-0.02326 c -0.11477,7.1e-4 -0.22832,0.00733 -0.34279,0.0144 -0.007,4.3e-4 -0.00653,0.01173 3.5e-4,0.01216 0.104,0.00645 0.20727,0.01416 0.31165,0.01357 a 0.32611,0.32611 0 0 1 0.13459,0.01809 0.21967,0.21967 0 0 1 0.06051,0.05436 0.971,0.971 0 0 1 0.02481,0.10381 0.67658,0.67658 0 0 1 0.01118,0.14376 0.64826,0.64826 0 0 1 -0.00538,0.06883 c -0.00214,0.01513 -0.00572,0.03064 -0.00834,0.04607 l -0.02255,-0.0129 a 0.35525,0.35525 0 0 0 -0.06771,-0.037 0.11724,0.11724 0 0 0 -0.06443,-0.00638 0.17318,0.17318 0 0 0 -0.06449,0.04262 c -0.00715,0.00565 0.00167,0.0163 0.00893,0.01092 a 0.1024,0.1024 0 0 1 0.12231,0.01214 0.51313,0.51313 0 0 0 0.12114,0.06435 c 0.04394,0.01391 0.08963,0.02131 0.13373,0.03459 a 0.16333,0.16333 0 0 1 0.1029,0.06272 c 0.00312,0.00511 0.01247,0.007 0.01452,-4.4e-4 0.02981,-0.10767 -0.16354,-0.12802 -0.22807,-0.14767 z"
     id="path30" />
  <path
     d="m 1.27047,2.2362045 c -0.02144,7.9e-4 -0.04216,0.00281 -0.06379,0.00253 -0.01894,-2.5e-4 -0.03776,-0.00188 -0.05664,-0.00338 -0.04117,-0.00328 -0.08257,-0.00551 -0.12357,-0.01066 a 0.90115,0.90115 0 0 1 -0.23419,-0.0635 2.06117,2.06117 0 0 1 -0.20169,-0.0944 0.55657,0.55657 0 0 1 -0.18028,-0.13225 c -0.00661,-0.00875 -0.0227,6.3e-4 -0.0168,0.01033 a 0.82168,0.82168 0 0 0 0.05396,0.08082 0.31108,0.31108 0 0 0 -0.26286,0.044 0.18588,0.18588 0 0 0 -0.07769,0.14269 l -1e-4,0.00785 A 0.17009,0.17009 0 0 0 0.041,2.2581145 0.10427,0.10427 0 0 0 0,2.3407845 c 3.9e-4,0.00851 0.01414,0.00788 0.01477,-4.2e-4 0.00215,-0.02847 0.03731,-0.04553 0.05914,-0.05655 a 0.35646,0.35646 0 0 1 0.03536,-0.01631 l 0.00258,-8.7e-4 a 0.26351,0.26351 0 0 0 0.05024,0.10345 c 0.00491,0.00639 0.01367,-0.0013 0.00949,-0.00776 a 0.222,0.222 0 0 1 -0.03108,-0.11331 0.02094,0.02094 0 0 0 2.8e-4,-0.018 l 0.00206,-0.022 a 0.15135,0.15135 0 0 1 0.07982,-0.109 0.31734,0.31734 0 0 1 0.13117,-0.03846 0.45,0.45 0 0 1 0.16219,0.03016 l 0.02385,0.01598 a 0.364,0.364 0 0 0 -0.05636,0.01186 0.79994,0.79994 0 0 1 -0.125,0.028 0.006,0.006 0 0 0 -0.00116,0.01155 0.27725,0.27725 0 0 0 0.11558,-0.00286 0.32815,0.32815 0 0 1 0.13146,0.0015 c 0.02158,0.00523 0.04346,0.01113 0.065,0.018 0.03772,0.01768 0.07551,0.03425 0.11367,0.04913 l 0.0143,0.00546 a 0.96235,0.96235 0 0 0 0.26986,0.06326 0.31678,0.31678 0 0 0 0.21676,-0.02717 0.01735,0.01735 0 0 0 -0.01351,-0.03022 z"
     id="path32" />
  <path
     d="m 1.778,2.4385945 a 0.29707,0.29707 0 0 0 -0.14279,-0.02146 c -0.05168,5.8e-4 -0.1032,0.00549 -0.15488,0.0057 -0.04692,1.9e-4 -0.09383,-0.00153 -0.14074,-0.00325 l 4.2e-4,-0.00637 a 0.47217,0.47217 0 0 0 -0.02578,-0.13762 0.01,0.01 0 0 0 -0.019,0.003 q -0.00167,0.068 -0.00288,0.13594 l 1.2e-4,0.00339 c -0.04432,-0.00144 -0.08864,-0.00233 -0.133,-0.00106 -0.05329,0.00152 -0.10637,0.00758 -0.15958,0.0106 -0.05421,0.00308 -0.10862,0.00206 -0.16289,0.00227 -0.1057,4e-4 -0.2114,7e-4 -0.3171,0.00192 -0.048,5.5e-4 -0.09584,5.4e-4 -0.14371,-0.003 a 0.39384,0.39384 0 0 1 -0.14672,-0.03049 c -0.00962,-0.0048 -0.0154,0.01091 -0.00584,0.01569 a 0.61382,0.61382 0 0 0 0.2484,0.05795 c 0.09948,0.00541 0.19963,0.00291 0.29922,0.00329 0.10666,4.1e-4 0.21247,6.5e-4 0.31892,-0.00691 0.10991,-0.00781 0.21974,-0.00637 0.32985,-0.00617 0.056,1e-4 0.11152,-0.00134 0.16744,-0.004 a 0.84665,0.84665 0 0 1 0.09235,-4e-4 c 0.02932,0.00182 0.05748,0.0102 0.08663,0.01186 0.01542,8.9e-4 0.0276,-0.02211 0.01156,-0.03088 z"
     id="path34" />
  <path
     d="m 0.19596,2.3933445 a 0.36565,0.36565 0 0 0 -0.078,-0.00494 0.208,0.208 0 0 1 -0.08174,-0.02363 0.00987,0.00987 0 0 0 -0.01327,0.01423 0.11421,0.11421 0 0 0 0.07721,0.04474 0.21251,0.21251 0 0 0 0.09677,0.00119 0.01721,0.01721 0 0 0 -9.7e-4,-0.03159 z"
     id="path36" />
  <path
     d="m 1.11898,1.2296945 a 0.43142,0.43142 0 0 0 -0.05341,0.05378 0.1308,0.1308 0 0 1 -0.07541,0.03007 0.18837,0.18837 0 0 1 -0.1429,-0.02425 0.00883,0.00883 0 0 0 -0.01308,0.0107 0.1562,0.1562 0 0 0 0.1569,0.06656 0.17645,0.17645 0 0 0 0.09818,-0.0311 0.21215,0.21215 0 0 0 0.05221,-0.08976 c 0.00651,-0.01427 -0.01187,-0.0228 -0.02249,-0.016 z"
     id="path38" />
  <path
     d="m 0.97198,1.6379945 a 0.24638,0.24638 0 0 1 -0.07267,-0.09306 c -0.00333,-0.01067 -0.02006,-0.00512 -0.01842,0.00543 a 0.209,0.209 0 0 0 0.04758,0.10333 c 0.01141,0.01433 0.02445,0.02726 0.03578,0.04167 a 0.34125,0.34125 0 0 0 0.03563,0.04485 0.01624,0.01624 0 0 0 0.02542,-0.01152 c 0.00267,-0.03659 -0.02939,-0.06689 -0.05332,-0.0907 z"
     id="path40" />
  <path
     d="m 1.33317,0.57497446 a 0.00853,0.00853 0 0 0 -0.01685,4.8e-4 c -0.003,0.08527 -0.10024,0.13134 -0.10861,0.21446 a 0.01711,0.01711 0 0 0 0.02756,0.01478 0.26206,0.26206 0 0 0 0.074,-0.10882 0.24126,0.24126 0 0 0 0.0239,-0.1209 z"
     id="path42" />
  <metadata
     id="metadata869">
    <rdf:RDF>
      <cc:Work
         rdf:about="">
        <dc:title>Yoga_Asana_Pose_Practice_health</dc:title>
      </cc:Work>
    </rdf:RDF>
  </metadata>
</svg>
