<?xml version="1.0" encoding="UTF-8" standalone="no"?>
<svg
   data-name="Layer 1"
   viewBox="0 0 2.8929877 1.2508236"
   x="0px"
   y="0px"
   version="1.1"
   id="svg36"
   sodipodi:docname="yoga-services-05.svg"
   width="2.8929877"
   height="1.2508236"
   inkscape:version="1.1.2 (0a00cf5339, 2022-02-04)"
   xmlns:inkscape="http://www.inkscape.org/namespaces/inkscape"
   xmlns:sodipodi="http://sodipodi.sourceforge.net/DTD/sodipodi-0.dtd"
   xmlns="http://www.w3.org/2000/svg"
   xmlns:svg="http://www.w3.org/2000/svg"
   xmlns:rdf="http://www.w3.org/1999/02/22-rdf-syntax-ns#"
   xmlns:cc="http://creativecommons.org/ns#"
   xmlns:dc="http://purl.org/dc/elements/1.1/">
  <defs
     id="defs40" />
  <sodipodi:namedview
     id="namedview38"
     pagecolor="#ffffff"
     bordercolor="#666666"
     borderopacity="1.0"
     inkscape:pageshadow="2"
     inkscape:pageopacity="0.0"
     inkscape:pagecheckerboard="0"
     showgrid="false"
     fit-margin-top="0"
     fit-margin-left="0"
     fit-margin-right="0"
     fit-margin-bottom="0"
     inkscape:zoom="102.08"
     inkscape:cx="1.4498433"
     inkscape:cy="-0.32817398"
     inkscape:window-width="1920"
     inkscape:window-height="1027"
     inkscape:window-x="0"
     inkscape:window-y="22"
     inkscape:window-maximized="1"
     inkscape:current-layer="svg36" />
  <title
     id="title2">Yoga_Asana_Pose_Practice_health</title>
  <path
     d="m 0.81077403,1.0091716 a 0.24252,0.24252 0 0 0 -0.08894,-0.0064 0.26229,0.26229 0 0 0 -0.05379,0.02408 0.115,0.115 0 0 0 -0.04841,0.04658 c -0.03183,-0.03329 -0.16853,-0.026 -0.18735,-0.0301 l -7e-4,0.00261 c 0.05826,0.02074 0.11728,0.04037 0.1763,0.05749 a 0.12557,0.12557 0 0 0 -0.00362,0.03708 h 0.00562 a 0.15557,0.15557 0 0 1 0.09426,-0.088 0.41906,0.41906 0 0 1 0.10654,-0.02309 0.01024,0.01024 0 0 0 9e-5,-0.02025 z"
     id="path4" />
  <path
     d="m 1.467884,1.1967716 c -0.12824,-3.5e-4 -0.25721,-0.01112 -0.38518,-0.01505 -0.07177,-0.0022 -0.14424997,5.4e-4 -0.21599997,0.002 a 0.48915,0.48915 0 0 1 -0.227,-0.01724 l -0.00282,0.00486 a 0.26471,0.26471 0 0 0 0.18,0.04485 c 0.07646,0.00219 0.1529,0.00194 0.22936997,0.00331 a 1.5657,1.5657 0 0 0 0.4262,-0.00511 c 0.011,-0.00301 0.0048,-0.01762 -0.00457,-0.01762 z"
     id="path6" />
  <path
     d="m 2.191984,1.1837116 a 0.318,0.318 0 0 0 -0.22712,-0.02475 2.17473,2.17473 0 0 1 -0.41137,0.052 l -7.5e-4,0.00562 a 1.10959,1.10959 0 0 0 0.3568,-0.00909 0.56524,0.56524 0 0 1 0.2777,-0.0156 c 0.00477,0.00188 0.00952,-0.00537 0.00474,-0.00818 z"
     id="path8" />
  <path
     d="m 2.399544,1.1815616 a 0.26326,0.26326 0 0 1 -0.07289,0.0258 c -0.01,0.00128 -0.09655,0.00453 -0.09723,0.00678 l -0.00175,-0.001 -0.00316,0.00429 0.00128,0.00312 a 0.65666,0.65666 0 0 0 0.11834,0.01165 0.152,0.152 0 0 0 0.07066,-0.01252 c 0.02366,-0.01127 0.00918,-0.04865 -0.01525,-0.03812 z"
     id="path10" />
  <path
     d="m 2.545764,0.28615163 a 1.20926,1.20926 0 0 0 -0.34458,0.07117 q -0.06308,0.01695 -0.12432,0.03742 l -0.00416,-0.005 c -0.01929,-0.01635 -0.0202,-0.05752 -0.02776,-0.07964 -0.00813,-0.0238 -0.01953,-0.04664 -0.027,-0.0707 -0.01321,-0.04239 -0.01366,-0.087 -0.0248,-0.12957 l -0.00469,6.3e-4 a 0.29883,0.29883 0 0 0 0.00591,0.15861 0.433,0.433 0 0 0 0.04416,0.13877 c -0.061,0.02136 -0.12108,0.045 -0.18091,0.07062 l 0.00109,0.00426 a 0.37414,0.37414 0 0 1 0.04541,-0.00463 c -0.02255,0.02677 -0.0411,0.058 -0.06608,0.08292 a 0.57481,0.57481 0 0 1 -0.07172,0.06126 0.22455,0.22455 0 0 1 -0.09084,0.015 c -0.057,-0.00233 -0.11252,-0.024 -0.17028,-0.02518 a 0.72522,0.72522 0 0 0 -0.1262,0.02669 0.19437,0.19437 0 0 1 -0.02783,-0.02528 c -0.01336,-0.01643 -0.02277,-0.03545 -0.03455,-0.053 a 0.82776,0.82776 0 0 1 -0.06294,-0.123 l -0.00589,0.00236 a 0.311,0.311 0 0 1 0.0127,0.08035 0.22622,0.22622 0 0 0 0.03134,0.06751 0.27631,0.27631 0 0 0 0.05785,0.07489 c -0.02278,0.02336 -0.041,0.053 -0.05994,0.07636 a 0.86222,0.86222 0 0 0 -0.09091,0.13591 c -0.00709,0.0132 -0.01593,0.02541 -0.02419,0.03787 a 0.50373,0.50373 0 0 0 -0.09657,-0.07042 0.47869,0.47869 0 0 1 -0.08237,-0.08027 0.398,0.398 0 0 1 -0.07614,-0.10622 l -0.0061,0.00164 a 0.37132,0.37132 0 0 0 0.09282,0.17941 0.3916,0.3916 0 0 0 0.07077,0.05727 c 0.02629,0.01843 0.04966,0.04374 0.0758,0.06159 a 0.23875,0.23875 0 0 1 -0.03417,0.07962 2.144,2.144 0 0 1 -0.21269997,-0.12171991 0.25631,0.25631 0 0 0 -0.15762,-0.02029 c -0.04136,0.00847 -0.05889,0.04444 -0.0931,0.05817 l 0.0012,0.00479 c 0.018,-0.00342 0.00308,-4.1e-4 0.01948,-0.00785 a 0.19474,0.19474 0 0 1 0.12313,-0.0217 0.36923,0.36923 0 0 1 0.15717,0.06987 0.52875,0.52875 0 0 0 0.06886,0.03979 c -0.03688,6.9e-4 -0.0738,0.00277 -0.11063997,0.00575 v 0.00159 a 2.058,2.058 0 0 1 0.35278997,0.05906 0.87641,0.87641 0 0 0 0.3098,0.006 3.74526,3.74526 0 0 1 0.40629,-0.01616 0.88515,0.88515 0 0 1 0.20578,0.01626 0.95736,0.95736 0 0 0 0.18267,0.05623 c 0.00982,3.8e-4 0.0154,-0.014 0.00478,-0.0178 -0.05877,-0.02119 -0.11328,-0.05422 -0.17412,-0.06966 a 0.65608,0.65608 0 0 0 -0.16746,-0.01635 c -0.143,0.00156 -0.28487,0.0012 -0.427,0.0141 a 0.98483,0.98483 0 0 1 -0.34942,-0.01453 0.68039,0.68039 0 0 0 -0.10439,-0.01935 0.1419,0.1419 0 0 0 0.0286,-0.04063 c 0.0247,-0.04819 0.05221,-0.09591 0.08144,-0.14240002 a 1.45353,1.45353 0 0 1 0.10473,-0.14192 0.19228,0.19228 0 0 1 0.13594,-0.06317 l 0.03967,0.00582 a 0.55611,0.55611 0 0 0 0.17076,0.02236 0.34032,0.34032 0 0 0 0.2568,-0.20786 l 0.02418,-0.004 a 2.06747,2.06747 0 0 0 0.19849,-0.06014 c 0.08675,-0.02839 0.17231,-0.06255 0.26032,-0.08719 a 0.32094,0.32094 0 0 0 -0.07679,0.29034 2.22661,2.22661 0 0 1 0.01361,0.24825 1.04318,1.04318 0 0 0 -0.01679,0.26753002 c 0.0027,0.0105 0.01618,0.00558 0.0182,-0.0023 a 1.31826,1.31826 0 0 0 0.02976,-0.44383002 0.86888,0.86888 0 0 1 -0.00955,-0.21784 0.48955,0.48955 0 0 1 0.07557,-0.151 c 0.01875,-0.00464 0.03758,-0.00894 0.05662,-0.0124 0.00787,-0.00142 0.00903,-0.01474 3e-5,-0.0150401 z"
     id="path12" />
  <path
     d="m 2.674384,0.15712163 h -0.0036 c -0.01539,0.08784 -0.01466,0.173 -0.03657,0.2605 -0.01953,0.078 -0.03211,0.15736 -0.05664,0.23374 a 1.52222,1.52222 0 0 0 -0.04167,0.21341 0.47086,0.47086 0 0 0 -10e-4,0.19768997 0.009,0.009 0 0 0 0.01776,7e-5 0.82467,0.82467 0 0 0 0.01106,-0.12954997 c 0.00295,-0.03158 0.01317,-0.06045 0.01755,-0.09153 a 1.65707,1.65707 0 0 1 0.04224,-0.20987 c 0.0211,-0.07729 0.02961,-0.15773 0.04518,-0.23628 a 0.63069,0.63069 0 0 0 0.00569,-0.23818 z"
     id="path14" />
  <path
     d="m 0.94004403,0.56403163 a 0.6687,0.6687 0 0 0 -0.24011,0.14766 c -0.05064,0.06419 -0.02787,0.18251 -0.09467,0.23419 l 0.00366,0.00491 a 0.37129,0.37129 0 0 0 0.10048,-0.18242 c 0.038,-0.09918 0.17477,-0.11385 0.2413,-0.19019 a 0.00924,0.00924 0 0 0 -0.01066,-0.01415 z"
     id="path16" />
  <path
     d="m 2.644394,0.02056163 a 1.865,1.865 0 0 0 -0.94987,0.10537 1.80552,1.80552 0 0 0 -0.41006,0.19639 c -0.05116,0.032 -0.10138,0.06539 -0.14988,0.10123 -0.04709,0.03481 -0.08128,0.07714 -0.13165,0.10831 l 0.00154,0.00274 a 2.03163,2.03163 0 0 0 0.28255,-0.16843 1.8917,1.8917 0 0 1 0.4022,-0.197 2.814,2.814 0 0 1 0.50282,-0.11884 1.81061,1.81061 0 0 1 0.20616,-0.0165 c 0.04745,-8.3e-4 0.09531,-0.00389 0.14274,-0.00294 a 0.37356,0.37356 0 0 0 0.10341,4.6e-4 0.00547,0.00547 0 0 0 4e-5,-0.01079 z"
     id="path18" />
  <path
     d="m 0.26145403,0.94002163 c -0.00674,0.025 -0.00111,0.04878 0.02548,0.05546 a 0.12267,0.12267 0 0 0 0.14974,-0.07382 c 0.00113,-0.0046 -0.00568,-0.00581 -0.00756,-0.002 a 0.11618,0.11618 0 0 1 -0.1015,0.04935 c -0.01314,3.9e-4 -0.02838,0.00357 -0.038,-0.00582 -0.02175,-0.02124 0.01673,-0.05505 0.0349,-0.06243 l -5.3e-4,-0.00208 -0.00862,8.3e-4 a 0.10283,0.10283 0 0 0 -0.02876,-0.08834 c -0.03443,-0.03752 -0.1153,-0.09614 -0.07681,-0.14991 l 0.01484,-0.00528 a 0.40754,0.40754 0 0 1 0.13337,-0.00411 l 4.9e-4,0.0038 a 0.11779,0.11779 0 0 1 -0.00162,0.024 0.231,0.231 0 0 1 -0.00815,0.02462 0.01264,0.01264 0 0 0 0.02152,0.01258 0.05254,0.05254 0 0 0 0.00949,-0.04976 l -0.00446,-0.016 a 0.14879,0.14879 0 0 0 0.03459,-0.00706 l -7.1e-4,-0.00277 a 0.16823,0.16823 0 0 1 -0.03895,-0.00125 l -0.01158,-0.0219 -0.00525,6.4e-4 a 0.05744,0.05744 0 0 0 0.002,0.0187 0.42784,0.42784 0 0 0 -0.094,-0.01522 0.2778,0.2778 0 0 0 -0.26123000013,0.27807 0.22092,0.22092 0 0 0 0.13400000013,0.21113997 0.38643,0.38643 0 0 0 0.27369,0.00493 c 0.00724,-0.00335 0.00491,-0.01547 -0.00362,-0.01409 -0.01475,0.00239 -0.03051,0.00391 -0.04663,0.00492 -0.05052,-0.03512 -0.12471,-0.03169 -0.17063,-0.07765 a 0.34132,0.34132 0 0 1 -0.05567,-0.20094997 h -0.00617 a 0.26082,0.26082 0 0 0 0.03681,0.23332997 0.21928,0.21928 0 0 0 0.05613,0.03723 0.425,0.425 0 0 1 -0.04939,-0.01185 0.19843,0.19843 0 0 1 -0.12863,-0.23967997 0.248,0.248 0 0 1 0.13418,-0.17035 0.09026,0.09026 0 0 0 5.8e-4,0.044 0.19155,0.19155 0 0 0 0.05294,0.08328 c 0.02968,0.02976 0.07032,0.04879 0.07547,0.09586 l 5.9e-4,0.002 a 0.063,0.063 0 0 0 -0.04234,0.03758 z"
     id="path20" />
  <path
     d="m 0.52452403,0.67067163 -0.007,-0.00471 -0.00437,-0.00759 -0.00845,-0.0146 c -0.00388,-0.0057 -0.01637,-0.01416 -0.0223,-0.00657 l 3.4e-4,0.0027 0.00459,0.0044 0.00223,0.007 0.00244,0.01294 a 0.04925,0.04925 0 0 0 0.0063,0.01557 c 0.00411,0.00577 0.00975,0.00642 0.01563,0.0092 0.0112,0.0053 0.01952,-0.01076 0.01059,-0.01834 z"
     id="path22" />
  <path
     d="m 0.56201403,0.69877163 v 0.00356 c 0.0405,0.02054 0.01593,0.08578 0.00375,0.1153 a 0.17923,0.17923 0 0 1 -0.02552,0.04875 c -0.0099,0.012 -0.02207,0.01949 -0.03206,0.03114 a 0.00714,0.00714 0 0 0 0.00819,0.01094 0.16547,0.16547 0 0 0 0.0959,-0.13144 c 0.00318,-0.02825 -0.00556,-0.09142 -0.05026,-0.07825 z"
     id="path24" />
  <path
     d="m 2.843504,1.2091516 a 0.78546,0.78546 0 0 1 -0.17884,0.00222 0.7491,0.7491 0 0 0 -0.21107,8e-5 l -5.5e-4,0.00582 c 0.07232,0.01062 0.14534,0.01649 0.21756,0.02781 a 0.29621,0.29621 0 0 0 0.17568,-0.01862 c 0.00847,-0.00358 0.00792,-0.01827 -0.00278,-0.01731 z"
     id="path26" />
  <path
     d="m 2.327534,1.0383116 a 0.40739,0.40739 0 0 0 -0.17063,-0.067 1.37516,1.37516 0 0 0 -0.27767,0.00839 1.77832,1.77832 0 0 1 -0.29678,-7.9e-4 0.8886,0.8886 0 0 0 -0.1358,-0.00483 0.31762,0.31762 0 0 1 -0.124,1.9e-4 l -6.9e-4,0.00168 a 0.61292,0.61292 0 0 0 0.21749,0.02852 1.4199,1.4199 0 0 0 0.2958,0.01252 c 0.08755,-0.008 0.17466,-0.01547 0.26314,-0.015 a 0.96545,0.96545 0 0 1 0.22242,0.05248 c 0.00919,0.00221 0.01315,-0.0109 0.00672,-0.01616 z"
     id="path28" />
  <path
     d="m 2.891324,1.1901016 c -0.01573,-0.03247 -0.08463,-0.03549 -0.11205,-0.046 -0.05612,-0.0216 -0.14323,-0.03048 -0.186,-0.076 l -0.00295,0.00243 c 0.032,0.06492 0.12,0.07688 0.18136,0.1 0.02819,0.01064 0.05915,0.01377 0.08661,0.02591 0.00768,0.0034 0.01724,0.0145 0.02646,0.01108 a 0.01193,0.01193 0 0 0 0.00657,-0.01742 z"
     id="path30" />
  <metadata
     id="metadata857">
    <rdf:RDF>
      <cc:Work
         rdf:about="">
        <dc:title>Yoga_Asana_Pose_Practice_health</dc:title>
      </cc:Work>
    </rdf:RDF>
  </metadata>
</svg>
