<?xml version="1.0" encoding="UTF-8" standalone="no"?>
<svg
   data-name="Layer 1"
   viewBox="0 0 2.3597679 1.6868087"
   x="0px"
   y="0px"
   version="1.1"
   id="svg26"
   sodipodi:docname="yoga-services-01.svg"
   width="2.3597679"
   height="1.6868087"
   inkscape:version="1.1.2 (0a00cf5339, 2022-02-04)"
   xmlns:inkscape="http://www.inkscape.org/namespaces/inkscape"
   xmlns:sodipodi="http://sodipodi.sourceforge.net/DTD/sodipodi-0.dtd"
   xmlns="http://www.w3.org/2000/svg"
   xmlns:svg="http://www.w3.org/2000/svg"
   xmlns:rdf="http://www.w3.org/1999/02/22-rdf-syntax-ns#"
   xmlns:cc="http://creativecommons.org/ns#"
   xmlns:dc="http://purl.org/dc/elements/1.1/">
  <defs
     id="defs30" />
  <sodipodi:namedview
     id="namedview28"
     pagecolor="#ffffff"
     bordercolor="#666666"
     borderopacity="1.0"
     inkscape:pageshadow="2"
     inkscape:pageopacity="0.0"
     inkscape:pagecheckerboard="0"
     showgrid="false"
     lock-margins="true"
     fit-margin-top="0"
     fit-margin-left="0"
     fit-margin-right="0"
     fit-margin-bottom="0"
     inkscape:zoom="256"
     inkscape:cx="1.1171875"
     inkscape:cy="1.0683594"
     inkscape:window-width="1920"
     inkscape:window-height="1027"
     inkscape:window-x="0"
     inkscape:window-y="22"
     inkscape:window-maximized="1"
     inkscape:current-layer="svg26" />
  <title
     id="title2">Yoga_Asana_Pose_Practice_health</title>
  <g
     id="g964"
     transform="matrix(0.64779171,0,0,0.64779171,-0.43960939,-0.77523904)">
    <path
       d="M 1.287,3.39087 C 1.14446,3.2452 1.04378,3.45119 0.92494,3.51373 0.87576,3.53961 0.64646,3.55054 0.68244,3.64841 A 0.00548,0.00548 0 0 0 0.69289,3.6471 C 0.69711,3.57576 0.89105,3.5851 0.94109,3.56276 1.04859,3.51481 1.11894,3.33331 1.25343,3.42376 1.27395,3.43758 1.30682,3.41116 1.287,3.39087 Z"
       id="path4" />
    <path
       d="M 2.95145,2.11489 C 2.77993,2.07108 2.63399,1.94943 2.44903,1.95038 A 0.368,0.368 0 0 0 2.1202,2.21521 1.15859,1.15859 0 0 0 2.07767,2.76468 1.08348,1.08348 0 0 0 2.23749,3.24994 0.39124,0.39124 0 0 0 2.09936,3.22013 1.106,1.106 0 0 0 1.86017,3.24961 C 1.68647,3.28827 1.53551,3.38527 1.35892,3.41529 V 3.42087 A 0.582,0.582 0 0 0 1.558,3.40156 a 0.26817,0.26817 0 0 0 0.01454,0.1855 6.07666,6.07666 0 0 0 -0.866,0.10149 c -0.00365,7e-4 -0.00425,0.00689 0,0.007 0.36094,0.00642 0.72047,-0.04322 1.08152,-0.04133 0.16257,8.5e-4 0.32245,0.01936 0.48426,0.03012 A 0.42151,0.42151 0 0 0 2.58332,3.63065 0.02931,0.02931 0 0 0 2.55505,3.58021 1.05485,1.05485 0 0 1 2.16658,3.59771 3.92313,3.92313 0 0 0 1.71851,3.58232 L 1.65331,3.58427 C 1.64315,3.55889 1.62791,3.53475 1.61971,3.50818 A 0.61886,0.61886 0 0 1 1.60646,3.38826 c 0.06322,-0.01873 0.126,-0.04151 0.19118,-0.059 A 1.17036,1.17036 0 0 1 2.0584,3.2883 0.42373,0.42373 0 0 1 2.22253,3.31859 0.11669,0.11669 0 0 0 2.30205,3.32909 C 2.32833,3.32556 2.33825,3.28253 2.30944,3.27423 L 2.29693,3.27032 A 1.49421,1.49421 0 0 1 2.16562,2.28671 0.32041,0.32041 0 0 1 2.55324,2.025 c 0.13485,0.02764 0.26,0.07893 0.39682,0.10038 0.00686,0.00103 0.00779,-0.00886 0.00139,-0.01049 z"
       id="path6" />
    <path
       d="M 3.32937,2.59964 A 0.81365,0.81365 0 0 1 3.01416,2.6007 0.40666,0.40666 0 0 0 3.01359,2.45212 C 3.00226,2.36263 2.9538,2.28028 2.94923,2.19041 2.94898,2.18554 2.94152,2.18574 2.94087,2.19041 2.92242,2.32147 2.98412,2.46165 2.94976,2.59188 A 0.8763,0.8763 0 0 0 2.68362,2.58598 0.03411,0.03411 0 0 0 2.66088,2.59959 C 2.65277,2.54177 2.64488,2.4839 2.63796,2.42585 a 0.00685,0.00685 0 0 0 -0.01359,0.0017 c 0.01288,0.18571 0.0243,0.37172 0.03278,0.55769 0.00389,0.08521 0.0046,0.17042 0.00453,0.25571 a 2.25665,2.25665 0 0 1 -0.051,0.29925 0.01416,0.01416 0 0 0 0.025,0.01048 0.71953,0.71953 0 0 0 0.07816,-0.48644 C 2.70637,2.92471 2.6872,2.78681 2.66776,2.64884 A 0.03346,0.03346 0 0 0 2.69223,2.65515 C 2.79989,2.64382 2.90533,2.67744 3.01251,2.67649 A 0.91554,0.91554 0 0 0 3.33325,2.61485 C 3.34149,2.61177 3.33822,2.59741 3.32937,2.59964 Z"
       id="path8" />
    <path
       d="M 3.75391,1.792 A 0.40116,0.40116 0 0 0 3.46314,1.88535 3.28664,3.28664 0 0 1 3.06375,2.1258 L 3.06514,2.1312 A 0.54606,0.54606 0 0 0 3.1996,2.1004 0.4432,0.4432 0 0 0 3.25942,2.29929 1.10377,1.10377 0 0 0 3.41693,2.52514 L 3.42118,2.52276 C 3.38699,2.45249 3.36369,2.37616 3.33218,2.30432 A 1.33706,1.33706 0 0 1 3.2524,2.079 C 3.26717,2.07233 3.2818,2.06533 3.29622,2.05787 A 0.33862,0.33862 0 0 0 3.49565,2.24182 0.00688,0.00688 0 0 0 3.50247,2.23008 0.59915,0.59915 0 0 1 3.34721,2.02981 1.63214,1.63214 0 0 1 3.75381,1.81917 0.01376,0.01376 0 0 0 3.75391,1.792 Z"
       id="path10" />
    <path
       d="M 3.83163,3.69891 A 1.266,1.266 0 0 1 3.72086,3.31521 3.47011,3.47011 0 0 1 3.672,2.941 C 3.664,2.84176 3.64155,2.3436 3.63163,2.206 a 0.00494,0.00494 0 0 0 -0.00976,0 C 3.60911,2.337 3.60104,2.46746 3.5987,2.598 A 0.22144,0.22144 0 0 0 3.43815,2.60376 c -0.00373,0.002 -0.00291,0.00851 0.002,0.00776 a 0.238,0.238 0 0 1 0.09851,0.02613 0.55986,0.55986 0 0 0 0.05948,0.01912 c -5e-4,0.12509 0.00434,0.25031 0.01638,0.37612 a 2.7383,2.7383 0 0 0 0.06971,0.413 0.56823,0.56823 0 0 0 0.123,0.27691 c 0.01496,0.015 0.03302,-0.00874 0.0244,-0.02389 z"
       id="path12" />
    <path
       d="M 4.21688,3.59812 A 0.12147,0.12147 0 0 0 4.10739,3.54492 0.60369,0.60369 0 0 1 3.99806,3.54614 0.18571,0.18571 0 0 1 3.91257,3.49114 1.64092,1.64092 0 0 1 3.88988,3.1632 C 3.88916,2.99842 3.90393,2.83439 3.91328,2.67003 3.92184,2.51939 3.92659,2.36836 3.92528,2.21747 3.92506,2.19175 3.92564,2.16333 3.92573,2.1338 A 0.786,0.786 0 0 0 4.00563,1.94236 C 4.02363,1.82782 3.99951,1.70169 4.07363,1.60421 4.10363,1.56469 4.1548,1.53851 4.147,1.48262 4.14022,1.43399 4.09591,1.40723 4.05428,1.38953 L 4.051,1.39523 C 4.14186,1.47855 4.08656,1.51576 4.04053,1.56833 4.02488,1.58066 4.01012,1.59451 3.996,1.60626 A 0.27064,0.27064 0 0 1 3.87,1.67333 l 4.8e-4,0.00384 A 0.39322,0.39322 0 0 0 3.99501,1.64407 0.41541,0.41541 0 0 0 3.97029,1.75276 1.18726,1.18726 0 0 1 3.94848,2.00352 0.4458,0.4458 0 0 1 3.92417,2.06025 0.33689,0.33689 0 0 0 3.858,1.851 L 3.85248,1.854 A 1.94182,1.94182 0 0 1 3.87034,2.44 C 3.86296,2.618 3.84192,2.79479 3.82888,2.97241 A 1.8906,1.8906 0 0 0 3.84322,3.4532 C 3.86015,3.54481 3.87989,3.68015 3.9897,3.69725 4.00395,3.69947 4.00845,3.68205 3.9997,3.67348 A 0.26575,0.26575 0 0 1 3.9453,3.59329 0.15629,0.15629 0 0 0 3.9798,3.60542 C 4.05726,3.62242 4.1358,3.57007 4.21027,3.60661 4.21566,3.60934 4.2195,3.60243 4.21688,3.59812 Z"
       id="path14" />
    <path
       d="M 4.30745,3.746 C 4.25086,3.72941 4.1969,3.69376 4.13659,3.71255 A 0.60913,0.60913 0 0 1 4.02906,3.75104 C 3.97325,3.75834 3.91746,3.74911 3.86161,3.75219 3.85689,3.75245 3.85731,3.75841 3.86052,3.76027 A 0.31471,0.31471 0 0 0 4.0868,3.79233 0.18763,0.18763 0 0 1 4.23209,3.7874 0.08435,0.08435 0 0 0 4.30721,3.78895 C 4.32443,3.782 4.32771,3.75192 4.30745,3.746 Z"
       id="path16" />
    <path
       d="M 3.939,1.22675 A 0.10405,0.10405 0 0 1 3.90819,1.26143 L 3.9071,1.26043 A 0.4198,0.4198 0 0 0 3.3517,1.36105 0.28435,0.28435 0 0 0 3.3157,1.59321 0.08292,0.08292 0 0 0 3.27527,1.60642 0.1079,0.1079 0 0 0 3.23598,1.72648 0.17323,0.17323 0 0 0 3.31816,1.84 0.22111,0.22111 0 0 0 3.48579,1.84188 0.009,0.009 0 0 0 3.48135,1.82467 0.316,0.316 0 0 1 3.37295,1.79904 0.11306,0.11306 0 0 1 3.30265,1.73948 0.08586,0.08586 0 0 1 3.29174,1.65827 0.06389,0.06389 0 0 1 3.32809,1.62947 0.29232,0.29232 0 0 0 3.50436,1.79715 0.006,0.006 0 0 0 3.51031,1.78692 0.28887,0.28887 0 0 1 3.42481,1.35903 0.28181,0.28181 0 0 1 3.57909,1.26776 0.27209,0.27209 0 0 0 3.57309,1.38763 0.45351,0.45351 0 0 1 3.53579,1.7043 L 3.54134,1.70861 A 0.3251,0.3251 0 0 0 3.64273,1.5239 C 3.65093,1.46041 3.59591,1.30515 3.64744,1.26143 L 3.64898,1.25932 A 0.56266,0.56266 0 0 1 3.73738,1.26426 0.252,0.252 0 0 0 3.72956,1.40893 0.354,0.354 0 0 1 3.67015,1.69688 L 3.67429,1.70111 A 0.27851,0.27851 0 0 0 3.77945,1.5353 0.6973,0.6973 0 0 0 3.78567,1.27183 C 3.81521,1.27734 3.84458,1.2841 3.87335,1.29113 L 3.8574,1.30489 c -0.00711,0.00628 -0.00345,0.02 0.00735,0.01828 A 0.08783,0.08783 0 0 0 3.92113,1.29212 0.20029,0.20029 0 0 0 3.94974,1.2312 0.0058127,0.0058127 0 0 0 3.939,1.22675 Z"
       id="path18" />
    <path
       d="M 4.07564,1.2921 A 0.01413,0.01413 0 0 0 4.06108,1.28352 0.72344,0.72344 0 0 1 3.97208,1.29599 v 0.00209 a 0.67661,0.67661 0 0 1 0.0773,0.01083 0.04055,0.04055 0 0 0 0.01118,0.03242 l 0.01107,1.2e-4 C 4.08788,1.33123 4.08236,1.30674 4.07564,1.2921 Z"
       id="path20" />
  </g>
  <metadata
     id="metadata953">
    <rdf:RDF>
      <cc:Work
         rdf:about="">
        <dc:title>Yoga_Asana_Pose_Practice_health</dc:title>
      </cc:Work>
    </rdf:RDF>
  </metadata>
</svg>
