<?xml version="1.0" encoding="UTF-8" standalone="no"?>
<svg
   data-name="Layer 1"
   viewBox="0 0 2.4892717 2.2850206"
   x="0px"
   y="0px"
   version="1.1"
   id="svg72"
   sodipodi:docname="yoga-services-04.svg"
   width="2.4892716"
   height="2.2850206"
   inkscape:version="1.1.2 (0a00cf5339, 2022-02-04)"
   xmlns:inkscape="http://www.inkscape.org/namespaces/inkscape"
   xmlns:sodipodi="http://sodipodi.sourceforge.net/DTD/sodipodi-0.dtd"
   xmlns="http://www.w3.org/2000/svg"
   xmlns:svg="http://www.w3.org/2000/svg"
   xmlns:rdf="http://www.w3.org/1999/02/22-rdf-syntax-ns#"
   xmlns:cc="http://creativecommons.org/ns#"
   xmlns:dc="http://purl.org/dc/elements/1.1/">
  <defs
     id="defs76" />
  <sodipodi:namedview
     id="namedview74"
     pagecolor="#ffffff"
     bordercolor="#666666"
     borderopacity="1.0"
     inkscape:pageshadow="2"
     inkscape:pageopacity="0.0"
     inkscape:pagecheckerboard="0"
     showgrid="false"
     fit-margin-top="0"
     fit-margin-left="0"
     fit-margin-right="0"
     fit-margin-bottom="0"
     inkscape:zoom="102.08"
     inkscape:cx="1.2441223"
     inkscape:cy="0.98452194"
     inkscape:window-width="1920"
     inkscape:window-height="1027"
     inkscape:window-x="0"
     inkscape:window-y="22"
     inkscape:window-maximized="1"
     inkscape:current-layer="svg72" />
  <title
     id="title2">Yoga_Asana_Pose_Practice_health</title>
  <path
     d="m 0.99429063,1.9094709 a 0.09419,0.09419 0 0 1 -0.07472,-0.045 0.223,0.223 0 0 1 -0.031,-0.09855 0.32776,0.32776 0 0 0 -0.068,-0.17034 c -0.07346,-0.08773 -0.18406,-0.13159 -0.2637,-0.21229 a 1.17528,1.17528 0 0 1 -0.19033,-0.34608 1.40358,1.40358 0 0 0 -0.10926,-0.19046998 c -0.0395,-0.058 -0.0852,-0.11042 -0.129,-0.165 a 0.33544,0.33544 0 0 1 -0.0898,-0.19086 0.3767,0.3767 0 0 1 0.085,-0.21441 0.009,0.009 0 0 0 -0.01462,-0.01035 0.5025,0.5025 0 0 0 -0.104,0.18329 0.25354,0.25354 0 0 0 0.03918,0.19221 0.56164,0.56164 0 0 1 0.01848,0.12953 0.80248,0.80248 0 0 0 0.03112,0.17191 0.76579,0.76579 0 0 0 0.07045,0.16346998 1.65522,1.65522 0 0 0 0.09618,0.13992 0.52361,0.52361 0 0 1 0.08,0.14378 c 0.019,0.059 0.01545,0.1225 0.03524,0.18143 a 0.54264,0.54264 0 0 0 0.22109,0.24131 c 0.10075,0.07357 0.21593,0.17117 0.20555,0.3099 -8.8e-4,0.01171 0.01744,0.01709 0.02085,0.00484 a 0.29378,0.29378 0 0 0 -0.12888,-0.29086 l -0.01273,-0.01046 0.00237,-0.00371 a 0.143,0.143 0 0 1 0.07481,-0.06783 0.00584,0.00584 0 0 0 -0.00177,-0.01106 0.11089,0.11089 0 0 0 -0.1046,0.06 0.74167,0.74167 0 0 1 -0.21634,-0.19839 0.48594,0.48594 0 0 1 -0.04484,-0.1751 0.4196,0.4196 0 0 0 -0.06415,-0.15751 c -0.031,-0.04853 -0.06786,-0.09294 -0.10024,-0.14051 a 0.76468,0.76468 0 0 1 -0.08277,-0.16055998 0.842,0.842 0 0 1 -0.04572,-0.195 0.6564,0.6564 0 0 0 -0.01312,-0.07644 c 0.02818,0.03644 0.05895,0.071 0.08709,0.10745 a 1.32686,1.32686 0 0 1 0.12477,0.19453998 2.221,2.221 0 0 0 0.19126,0.37434 0.63644,0.63644 0 0 0 0.13959,0.123 l 0.027,0.01849 a 0.26765,0.26765 0 0 0 0.032,0.07159 0.797,0.797 0 0 0 0.05523,0.08592 1.57876,1.57876 0 0 0 0.11472,0.13783 c 0.01918,0.06308 0.06307,0.132 0.1383,0.1203 0.01331,-0.00203 0.01357,-0.02441 -6.9e-4,-0.02427 z m -0.22487,-0.24475 a 0.79228,0.79228 0 0 1 -0.0535,-0.08143 l -0.01814,-0.03525 a 0.55262,0.55262 0 0 1 0.06886,0.05716 0.26163,0.26163 0 0 1 0.05455,0.07584 0.40322,0.40322 0 0 1 0.0242,0.08562 c -0.0251,-0.03414 -0.05091,-0.06778 -0.07597,-0.10194 z"
     id="path4" />
  <path
     d="m 1.3987106,2.1997009 a 0.11874,0.11874 0 0 1 -0.11135,0.05026 0.53558,0.53558 0 0 1 -0.15554,-0.03261 0.45345,0.45345 0 0 0 -0.0758,-0.01652 0.2896,0.2896 0 0 0 -0.07631,0.00343 0.12244,0.12244 0 0 1 -0.12708,-0.04326 0.00706,0.00706 0 0 0 -0.01229,0.00691 0.12933,0.12933 0 0 0 0.11359,0.071 c 0.0303,-1.5e-4 0.05943,-0.00719 0.0899,-0.00448 a 0.43018,0.43018 0 0 1 0.09046,0.021 0.356,0.356 0 0 0 0.1713,0.02839 0.15021,0.15021 0 0 0 0.10221,-0.07884 c 0.00296,-0.00606 -0.00573,-0.01125 -0.00909,-0.00528 z"
     id="path6" />
  <path
     d="m 1.6040706,1.9423509 c -0.00575,-0.00461 -0.01379,0.00258 -0.01092,0.00894 0.01274,0.02825 -0.01062,0.04569 -0.03531,0.05348 l -0.02574,0.00673 a 0.15123,0.15123 0 0 0 0.00263,-0.08221 c -0.00244,-0.011 -0.02031,-0.01193 -0.02074,5.9e-4 a 0.10769,0.10769 0 0 1 -0.05651,0.10233 0.186,0.186 0 0 1 -0.13175,-0.02165 c -0.048,-0.021 -0.09395,-0.04732 -0.14347,-0.06485 a 0.30177,0.30177 0 0 0 -0.07538,-0.01756 0.23657,0.23657 0 0 0 -0.07728,0.01039 0.00472,0.00472 0 0 0 0.00147,0.00932 0.29838,0.29838 0 0 1 0.09455,0.01915 c 0.01305,0.00394 0.0259,0.00845 0.03858,0.01338 -0.0227,-0.00123 -0.04542,-0.00214 -0.0681,-0.00368 a 0.37469,0.37469 0 0 1 -0.07808,-0.00884 c -0.00674,-0.00192 -0.01068,0.008 -0.00385,0.01036 a 0.59349,0.59349 0 0 0 0.13285,0.03157 c 0.02293,0.00236 0.04592,0.00439 0.06881,0.00708 l 0.0366,0.00441 0.02968,0.01487 -0.02809,0.00885 a 0.52551,0.52551 0 0 1 -0.04935,0.01839 0.23616,0.23616 0 0 1 -0.06471,0.00542 0.00653242,0.00653242 0 0 0 -0.0013,0.013 0.25517,0.25517 0 0 0 0.10783,6e-5 0.49155,0.49155 0 0 1 0.0525,-0.015 c 0.0134,-0.00244 0.0302,-0.00114 0.04443,-0.00414 l 0.0177,0.00583 a 0.2175,0.2175 0 0 0 0.07287,0.01 0.22922,0.22922 0 0 1 -0.01064,0.09165 0.00519,0.00519 0 0 0 0.00906,0.00479 0.14857,0.14857 0 0 0 0.03182,-0.1014 0.10933,0.10933 0 0 0 0.03579,-0.01781 l 0.01244,-0.01129 a 0.153,0.153 0 0 0 0.08373,-0.02627 0.05182,0.05182 0 0 0 0.00788,-0.07589 z"
     id="path8" />
  <path
     d="m 1.5130206,1.8620009 a 0.147,0.147 0 0 0 -0.0238,-0.0636 0.12055,0.12055 0 0 0 -0.0569,-0.04355 0.32024,0.32024 0 0 0 -0.1713,-0.01779 0.00645,0.00645 0 0 0 3.6e-4,0.01273 0.78952,0.78952 0 0 1 0.14681,0.0349 0.15084,0.15084 0 0 1 0.06,0.02689 0.14551,0.14551 0 0 1 0.03083,0.05453 c 0.00309,0.0079 0.01514,0.00394 0.014,-0.00411 z"
     id="path10" />
  <path
     d="m 1.0521506,1.7262909 a 0.06736,0.06736 0 0 0 -0.07989,-10e-4 c -0.01854,0.00956 -0.03932,0.02637 -0.03037,0.04955 0.00274,0.00709 0.01324,0.00346 0.01239,-0.00365 -0.00143,-0.01189 0.01446,-0.01767 0.02291,-0.01982 a 0.08577,0.08577 0 0 1 0.025,-0.00126 0.12583,0.12583 0 0 0 0.04483,-0.00236 0.01393,0.01393 0 0 0 0.00513,-0.02146 z"
     id="path12" />
  <path
     d="m 1.5793706,1.7543309 a 0.05574,0.05574 0 0 0 -0.0441,-0.00942 c -0.01419,0.00367 -0.028,0.00837 -0.04183,0.01325 a 0.00782,0.00782 0 0 0 0.00237,0.01483 0.13682,0.13682 0 0 1 0.0652,0.01608 c 0.01985,0.01042 0.03709,-0.02267 0.01836,-0.03474 z"
     id="path14" />
  <path
     d="m 1.5834006,1.8334009 a 0.03752,0.03752 0 0 0 -0.03483,-0.02819 0.04109,0.04109 0 0 0 -0.02039,0.00444 c -0.00565,0.003 -0.01223,0.0129 -0.00694,0.019 a 0.05793,0.05793 0 0 0 0.01914,0.011 l 0.01624,0.01032 a 0.01745,0.01745 0 0 0 0.01875,4.8e-4 0.01691,0.01691 0 0 0 0.00803,-0.01705 z"
     id="path16" />
  <path
     d="m 1.5103406,2.1177209 a 0.00782,0.00782 0 0 0 -0.01483,0.00237 0.033,0.033 0 0 1 -0.01822,0.02561 0.18745,0.18745 0 0 0 -0.02686,0.01776 0.01046,0.01046 0 0 0 0.00818,0.01827 c 0.03074,-0.00158 0.06515,-0.03057 0.05173,-0.06401 z"
     id="path18" />
  <path
     d="m 1.4728706,2.1870209 a 0.38184,0.38184 0 0 1 -0.048,0.02079 c -0.01094,0.00441 -0.00877,0.02355 0.00377,0.02357 a 0.0697,0.0697 0 0 0 0.056,-0.03 c 0.00529,-0.00723 -0.00323,-0.01924 -0.01177,-0.01436 z"
     id="path20" />
  <path
     d="m 1.0070206,2.0354509 a 0.11107,0.11107 0 0 0 -0.14210997,0.01911 c -0.00418,0.00438 -0.00207,0.01478 0.00564,0.01258 a 0.35739,0.35739 0 0 1 0.12689,-0.00608 0.01425,0.01425 0 0 0 0.00958,-0.02561 z"
     id="path22" />
  <path
     d="m 1.2280206,1.7139909 a 0.41579,0.41579 0 0 1 -0.10781,-0.08164 0.89177,0.89177 0 0 1 -0.08546,-0.11195 c -0.06062,-0.08947 -0.11560997,-0.18323 -0.16812997,-0.27765 a 1.15735,1.15735 0 0 1 -0.12568,-0.28734998 0.80149,0.80149 0 0 1 -0.01784,-0.16814 c 0.01217,-0.00239 0.02425,-0.00564 0.03647,-0.00764 a 0.2627,0.2627 0 0 1 0.0533,-0.00372 0.507,0.507 0 0 1 0.1104,0.01483 c 0.03749,0.01 0.07358,0.024 0.10985997,0.03758 0.03873,0.01452 0.07814,0.02745 0.11716,0.04118 0.01316,0.00463 0.02522,-0.01536 0.01194,-0.02259 -0.04807,-0.02618 -0.09532,-0.05281 -0.145,-0.074 l 0.00134,-0.02139 a 0.33506,0.33506 0 0 1 0.00545,-0.04879 c 0.006,-0.03019 0.01459,-0.05958 0.01766,-0.09034 a 0.537,0.537 0 0 0 8.4e-4,-0.09235 c -0.00246,-0.03338 -0.00989,-0.06619 -0.01187,-0.09953 -6.2e-4,-0.01038 -0.01636,-0.00768 -0.01588,0.00251 a 0.81029,0.81029 0 0 1 -0.00487,0.098 0.9296,0.9296 0 0 1 -0.01132,0.09655 c -0.00548,0.03024 -0.01559,0.05939 -0.02076,0.08969 a 0.37906,0.37906 0 0 0 -0.00436,0.046 l -1.3e-4,0.00286 a 0.50239,0.50239 0 0 0 -0.05116,-0.01456 0.31382,0.31382 0 0 0 -0.11879,-0.00664 0.22778,0.22778 0 0 0 -0.0808,0.02545 c -7.5e-4,-0.04448 -0.00112,-0.089 -0.005,-0.13328 a 1.13393,1.13393 0 0 0 -0.091,-0.34958 c -0.00383,-0.00892 -0.01652,-0.00288 -0.01355,0.006 a 1.3856,1.3856 0 0 1 0.06463,0.32817 2.6147,2.6147 0 0 0 0.01873,0.333 1.07817,1.07817 0 0 0 0.12117,0.29299998 c 0.05059,0.09208 0.10675,0.18 0.16581,0.26674 -0.00854,-6.6e-4 -0.01719,-4.8e-4 -0.02547,-3.4e-4 a 0.08657,0.08657 0 0 0 -0.086,0.04551 c -0.0026,0.00624 0.00512,0.0104 0.00994,0.00711 a 0.13428,0.13428 0 0 1 0.07534,-0.0163 0.15635,0.15635 0 0 1 0.03342,0.00174 0.143,0.143 0 0 1 0.01947,0.00858 l 0.00738,0.00376 a 0.39388,0.39388 0 0 0 0.20031,0.17893 c 0.01103,0.00295 0.02226,-0.013 0.01026,-0.01941 z"
     id="path24" />
  <path
     d="m 1.5823806,1.8868109 -0.02352,-0.00234 c -0.01053,-0.00189 -0.01965,0.01355 -0.01145,0.02134 a 0.04585,0.04585 0 0 0 0.03588,0.01294 0.01618,0.01618 0 0 0 -9.1e-4,-0.03194 z"
     id="path26" />
  <path
     d="m 1.1631706,0.24659092 a 0.31805,0.31805 0 0 0 -0.10008,0.001 c -0.03493,0.00439 -0.06978,0.00954 -0.10479997,0.01322 a 0.29979,0.29979 0 0 1 -0.19217,-0.04185 0.88425,0.88425 0 0 0 -0.1609,-0.0947 0.37139,0.37139 0 0 0 -0.1957,-0.0099 0.517,0.517 0 0 0 -0.10922,0.03478 c -0.0376,0.01691 -0.0726,0.03917 -0.10874,0.05888 a 0.00562,0.00562 0 0 0 0.00455,0.01027 1.24441,1.24441 0 0 1 0.20283,-0.05889 0.34608,0.34608 0 0 1 0.19194,0.01176 0.40643,0.40643 0 0 1 0.07862,0.04445 l 0.006,0.01138 a 0.346,0.346 0 0 1 0.023,0.05182 0.36828,0.36828 0 0 1 0.027,0.11139 0.00669,0.00669 0 0 0 0.01331,0.00133 0.48082,0.48082 0 0 0 0.00605,-0.06379 0.21813,0.21813 0 0 0 -0.00975,-0.05934 l -0.00343,-0.01068 0.01422,0.00856 a 0.33167,0.33167 0 0 0 0.193,0.04445 0.86259,0.86259 0 0 0 0.10969997,-0.01977 0.67513,0.67513 0 0 1 0.11547,-0.013 c 0.01923,-5.6e-4 0.01534,-0.02817 -9e-4,-0.03137 z"
     id="path28" />
  <path
     d="m 1.6796506,0.47197092 a 0.22813,0.22813 0 0 1 -0.07052,-0.0995 0.27523,0.27523 0 0 0 -0.05727,-0.0746 0.24231,0.24231 0 0 0 -0.0446,-0.04633 c -0.02141,-0.01992 -0.04192,-0.04071 -0.06364,-0.06024 -0.00395,-0.00355 -0.00963,0.002 -0.00771,0.00631 a 0.21061,0.21061 0 0 0 0.03141,0.0499 0.2834,0.2834 0 0 0 -0.1192,-0.01859 0.591,0.591 0 0 0 -0.05632,-0.0811 0.09787,0.09787 0 0 0 -0.05439,-0.02374 c -0.01908,-0.00292 -0.05111,-0.00449 -0.06369,-0.02175 -0.00391,-0.00537 -0.01133,0.00106 -0.00786,0.00643 a 0.06285,0.06285 0 0 0 0.01727,0.0216 0.09733,0.09733 0 0 0 0.02657,0.011 0.13664,0.13664 0 0 1 0.06178,0.02552 0.27754,0.27754 0 0 1 0.0428,0.06625 0.2829,0.2829 0 0 0 -0.03387,0.00847 0.26394,0.26394 0 0 0 -0.06576,0.03217 0.392,0.392 0 0 0 -0.05419,0.05089 c -0.006,0.00589 0.00218,0.01612 0.00836,0.01022 a 0.22107,0.22107 0 0 1 0.06844,-0.03886 0.30449,0.30449 0 0 1 0.07423,-0.02116 0.27334,0.27334 0 0 1 0.15054,0.01933 0.30755,0.30755 0 0 1 0.11685,0.09123 c 0.02762,0.036 0.04842,0.08343 0.0929,0.10148 0.00878,0.0035 0.01613,-0.00977 0.00787,-0.01493 z"
     id="path30" />
  <path
     d="m 1.3616006,0.76429092 a 0.20186,0.20186 0 0 1 -0.11864,-0.04289 0.27317,0.27317 0 0 1 -0.03748,-0.05229 0.09964,0.09964 0 0 1 -0.00918,-0.07343 c 0.00148,-0.00724 -0.00965,-0.00929 -0.01223,-0.00284 a 0.1315,0.1315 0 0 0 -0.01521,0.08163 0.18434,0.18434 0 0 0 0.03854,0.076 0.17322,0.17322 0 0 0 0.15517,0.04766 c 0.02051,-0.00187 0.01698,-0.03048 -9.7e-4,-0.03384 z"
     id="path32" />
  <path
     d="m 1.7921806,0.69471092 a 0.25668,0.25668 0 0 0 -0.09044,-0.00756 c -0.02627,-0.01254 -0.05458,-0.02208 -0.08086,-0.03439 a 0.31333,0.31333 0 0 1 -0.08155,-0.048 0.12134,0.12134 0 0 1 -0.03665,-0.07236 0.11766,0.11766 0 0 1 0.01461,-0.08658 c 0.00508,-0.00653 -0.00535,-0.01387 -0.01048,-0.00742 a 0.15246,0.15246 0 0 0 -0.04138,0.08563 0.14034,0.14034 0 0 0 0.03,0.097 0.21021,0.21021 0 0 0 0.09053,0.06175 0.515,0.515 0 0 0 0.05592,0.017 0.19536,0.19536 0 0 0 -0.054,0.028 0.24071,0.24071 0 0 0 -0.061,0.08 0.16118,0.16118 0 0 1 -0.06371,0.07386 0.00456,0.00456 0 0 0 0.00255,0.00863 0.11841,0.11841 0 0 0 0.06963,-0.03872 c 0.022,-0.02378 0.03753,-0.05269 0.05942,-0.07645 a 0.15012,0.15012 0 0 1 0.08371,-0.04346 c 0.03681,-0.00713 0.074,-0.002 0.11079,-0.00772 0.01418,-0.0023 0.01797,-0.02502 0.00291,-0.02921 z"
     id="path34" />
  <path
     d="m 1.6545206,0.99610092 a 0.10752,0.10752 0 0 0 -0.07487,-0.06047 0.38033,0.38033 0 0 0 -0.11833,-0.0053 0.79341,0.79341 0 0 1 -0.10756,-0.0044 0.22079,0.22079 0 0 1 -0.10894,-0.0303 c -0.00541,-0.00408 -0.01138,0.00441 -0.00607,0.00858 a 0.3313,0.3313 0 0 0 0.08378,0.0546 0.30669,0.30669 0 0 0 0.10561,0.01743 c 0.03683,8e-4 0.07343,-0.00185 0.11019,-0.00348 a 0.10851,0.10851 0 0 1 0.09732,0.03494 0.01123,0.01123 0 0 0 0.01887,-0.0116 z"
     id="path36" />
  <path
     d="m 2.2472206,1.8775909 c -0.03609,-0.06387 -0.09546,-0.11063 -0.13578,-0.17178 a 0.31056,0.31056 0 0 1 -0.04642,-0.10495 c -0.009,-0.04341 -0.00706,-0.08829 -0.012,-0.13219 a 1.11954,1.11954 0 0 0 -0.08949,-0.24047 1.18432,1.18432 0 0 1 -0.05142,-0.25606998 0.63243,0.63243 0 0 0 -0.02249,-0.14466 0.14646,0.14646 0 0 0 -0.07856,-0.08532 c -0.007,-0.00314 -0.01075,0.00769 -0.0041,0.011 a 0.12593,0.12593 0 0 1 0.05223,0.10744 c 0.00443,0.0423 0.00705,0.08475 0.01186,0.127 a 1.146,1.146 0 0 0 0.05532,0.25056998 1.17661,1.17661 0 0 1 0.08881,0.23644 0.4545,0.4545 0 0 0 0.05808,0.22783 1.146,1.146 0 0 0 0.07771,0.08957 q 0.04188,0.04629 0.08069,0.09509 c 0.0063,0.00794 0.02077,-2.7e-4 0.01556,-0.0095 z"
     id="path38" />
  <path
     d="m 1.9651406,1.8147809 a 0.23147,0.23147 0 0 1 -0.00523,-0.10722 0.30455,0.30455 0 0 0 -0.0068,-0.09724 0.46567,0.46567 0 0 0 -0.09285,-0.1632 0.31062,0.31062 0 0 1 -0.04719,-0.08363 c -0.01126,-0.03262 -0.01945,-0.0659 -0.03254,-0.09794 a 0.907,0.907 0 0 0 -0.11611,-0.1976 0.0051,0.0051 0 0 0 -0.00857,0.00527 c 0.02708,0.06076 0.05764,0.11995 0.08409,0.181 a 1.22533,1.22533 0 0 0 0.07176,0.18074 1.0742,1.0742 0 0 1 0.10039,0.15091 0.28476,0.28476 0 0 1 0.02171,0.0956 c 0.00177,0.03354 -0.0051,0.06693 -0.00277,0.10052 0.00446,0.06421 0.064,0.112 0.056,0.17745 a 0.0133,0.0133 0 0 0 0.02558,0.00593 c 0.02041,-0.05403 -0.02859,-0.10397 -0.04747,-0.15059 z"
     id="path40" />
  <path
     d="m 2.1963706,2.0229209 a 0.25833,0.25833 0 0 0 -0.08889,-0.0915 0.43529,0.43529 0 0 1 -0.05,-0.045 0.16853,0.16853 0 0 0 -0.05084,-0.04137 c -0.00708,-0.00349 -0.01223,0.00744 -0.00628,0.01189 a 0.19069,0.19069 0 0 1 0.04256,0.05623 0.21387,0.21387 0 0 0 0.04146,0.04645 c 0.03109,0.02632 0.06327,0.05138 0.09434,0.07769 0.00935,0.00792 0.02183,-0.00433 0.01765,-0.01439 z"
     id="path42" />
  <path
     d="m 2.2220806,1.9040909 a 0.33836,0.33836 0 0 0 -0.05474,-0.07687 0.006,0.006 0 0 0 -0.01052,0.00471 0.11729,0.11729 0 0 0 0.01831,0.03754 0.18318,0.18318 0 0 1 0.01977,0.04546 0.29838,0.29838 0 0 0 0.033,0.0905 0.01137,0.01137 0 0 0 0.01993,-0.006 0.23343,0.23343 0 0 0 -0.02575,-0.09534 z"
     id="path44" />
  <path
     d="m 1.7066006,0.88277092 a 0.13706,0.13706 0 0 0 -0.0579,-0.03138 0.11012,0.11012 0 0 0 -0.05675,0.00561 c -0.009,0.00279 -0.00441,0.01863 0.00471,0.016 a 0.0562,0.0562 0 0 1 0.0481,0.01532 0.253,0.253 0 0 1 0.03718,0.02886 0.164,0.164 0 0 1 0.03028,0.08 0.01627,0.01627 0 0 0 0.03212,-9.2e-4 0.12386,0.12386 0 0 0 -0.03774,-0.11349 z"
     id="path46" />
  <path
     d="m 0.92880063,0.49812092 a 0.09243,0.09243 0 0 0 -0.03539,-0.00519 0.29485,0.29485 0 0 1 -0.04011,-0.00436 0.22834,0.22834 0 0 1 -0.07753,-0.02734 0.00723066,0.00723066 0 0 0 -0.00836,0.0118 0.23875,0.23875 0 0 0 0.076,0.04612 0.114,0.114 0 0 0 0.08612,0.00481 0.01417,0.01417 0 0 0 -7.3e-4,-0.02584 z"
     id="path48" />
  <path
     d="m 2.0067206,0.62884092 a 0.23854,0.23854 0 0 1 -0.11151,-0.06 0.19372,0.19372 0 0 1 -0.0557,-0.12428 c 5e-5,-0.0079 -0.01186,-0.00939 -0.01242,-0.00124 a 0.23452,0.23452 0 0 0 0.00946,0.09194 c -0.01727,-0.00158 -0.03613,1.3e-4 -0.0479,-9.3e-4 a 0.45922,0.45922 0 0 1 -0.12542,-0.02193 c -0.0069,-0.0027 -0.01018,0.00731 -0.00391,0.01052 a 0.42707,0.42707 0 0 0 0.10022,0.04223 0.296,0.296 0 0 0 0.05223,0.00677 0.24934,0.24934 0 0 0 0.02539,-7e-5 0.11518,0.11518 0 0 1 0.0164,-0.00145 l 0.01534,0.02 a 0.1685,0.1685 0 0 0 0.1357,0.05963 0.01107,0.01107 0 0 0 0.00212,-0.02119 z"
     id="path50" />
  <path
     d="m 2.4716006,0.50298092 a 0.22758,0.22758 0 0 0 -0.06921,-0.10658 0.19469,0.19469 0 0 0 -0.10815,-0.04744 c -0.00882,-3.8e-4 -0.01283,0.01268 -0.00364,0.0157 a 0.19938,0.19938 0 0 1 0.0877,0.05032 0.24913,0.24913 0 0 1 0.05509,0.08956 0.29922,0.29922 0 0 1 -0.00291,0.19974 0.21831,0.21831 0 0 1 -0.12231,0.13271 0.2685,0.2685 0 0 1 -0.10987,0.014 0.43267,0.43267 0 0 1 -0.11053,-0.01676 0.14731,0.14731 0 0 1 -0.04412,-0.02616 0.34683,0.34683 0 0 0 0.16428,-0.03578 0.3064,0.3064 0 0 0 0.10554,-0.08241 0.17963,0.17963 0 0 0 0.03136,-0.05767 0.21456,0.21456 0 0 0 0.007,-0.06349 c 5e-5,-0.0076 -0.0117,-0.00893 -0.01189,-0.00119 a 0.16568,0.16568 0 0 1 -0.05458,0.10274 0.32539,0.32539 0 0 1 -0.09654,0.06544 0.40793,0.40793 0 0 1 -0.12184,0.03359 0.29508,0.29508 0 0 1 -0.09868,-0.00659 l -0.02378,-0.00584 -0.0058,-0.00159 -0.00493,-1.6e-4 a 0.16254,0.16254 0 0 0 -0.06017,0.00208 0.00483,0.00483 0 0 0 2.7e-4,0.00953 0.32533,0.32533 0 0 1 0.0608,0.01195 0.26447,0.26447 0 0 1 0.05362,0.02842 0.364,0.364 0 0 0 0.0976,0.06409 0.49449,0.49449 0 0 0 0.13891,0.01994 l -0.00133,0.001 a 0.12612,0.12612 0 0 1 -0.02816,0.01431 0.174,0.174 0 0 1 -0.062,0.01091 0.25506,0.25506 0 0 1 -0.07945,-0.012 c -0.02511,-0.00807 -0.048,-0.01934 -0.05322,-0.04776 a 0.007,0.007 0 0 0 -0.0134,-0.00134 c -0.02569,0.07436 0.07706,0.099 0.1295,0.102 a 0.22389,0.22389 0 0 0 0.091,-0.012 c 0.02393,-0.00888 0.05767,-0.03035 0.06066,-0.05819 v -2.9e-4 a 0.25621,0.25621 0 0 0 0.06116,-0.01637 0.30234,0.30234 0 0 0 0.14202,-0.36842 z"
     id="path52" />
  <path
     d="m 1.4306606,0.16240092 a 0.19239,0.19239 0 0 1 -0.01864,-0.04888 0.11185,0.11185 0 0 0 -0.01969,-0.04533 0.16785,0.16785 0 0 0 -0.049,-0.03378 0.40919,0.40919 0 0 0 -0.06285,-0.032 0.00537,0.00537 0 0 0 -0.005,0.00937 c 0.01683,0.01513 0.03681,0.02724 0.055,0.04067 a 0.128,0.128 0 0 1 0.04339,0.03974 c 0.0132,0.02679 0.01021,0.06764 0.04026,0.08359 0.0084,0.0044 0.0226,-0.00277 0.01653,-0.01338 z"
     id="path54" />
  <path
     d="m 1.2559306,0.05077092 a 0.28321,0.28321 0 0 1 -0.01766,-0.04442 0.00777,0.00777 0 0 0 -0.01385,-0.00325 0.035,0.035 0 0 0 -8.4e-4,0.03546 l 0.00975,0.01956 a 0.06578,0.06578 0 0 1 0.00515,0.02885 0.10666,0.10666 0 0 1 -0.03146,-0.00115 c -0.00567,-0.00121 -0.008,0.0086 -0.00231,0.01 a 0.29342,0.29342 0 0 0 0.04187,0.00885 0.00937,0.00937 0 0 0 0.00963,-0.006 0.0777,0.0777 0 0 0 -2.8e-4,-0.0479 z"
     id="path56" />
  <path
     d="m 1.9727006,0.41568092 a 0.07008,0.07008 0 0 1 -0.01461,-0.0229 c -0.00328,-0.00931 -0.00578,-0.02214 -0.015,-0.02739 l -0.01119,0.00175 c -0.009,0.01019 -0.00467,0.02838 -1.5e-4,0.03975 a 0.04228,0.04228 0 0 0 0.02953,0.02956 0.01236,0.01236 0 0 0 0.01142,-0.02077 z"
     id="path58" />
  <path
     d="m 2.1583706,0.42488092 a 0.06835,0.06835 0 0 1 -0.01713,-0.0526 c 0.00124,-0.00642 -0.00805,-0.00767 -0.0105,-0.00244 a 0.0523,0.0523 0 0 0 0.01543,0.06811 0.00907,0.00907 0 0 0 0.0122,-0.01307 z"
     id="path60" />
  <path
     d="m 2.1965806,0.66234092 a 0.06558,0.06558 0 0 0 -0.03909,-0.03741 c -0.01261,-0.00578 -0.01908,0.01189 -0.01044,0.01976 0.00741,0.00675 0.02237,0.01693 0.02375,0.02777 0.00179,0.01409 -0.01211,0.016 -0.02315,0.01726 a 0.25415,0.25415 0 0 1 -0.08086,-0.00432 c -0.00707,-0.0015 -0.00806,0.00861 -0.00264,0.01137 0.032,0.01622 0.087,0.03471 0.11959,0.01028 a 0.039,0.039 0 0 0 0.01284,-0.04471 z"
     id="path62" />
  <path
     d="m 2.2913106,0.42167092 a 0.00652,0.00652 0 0 0 -0.01286,0.002 0.17327,0.17327 0 0 1 -0.02769,0.111 0.17029,0.17029 0 0 1 -0.06881,0.06105 0.01447,0.01447 0 0 0 0.00808,0.02741 0.13174,0.13174 0 0 0 0.09258,-0.06884 0.14855,0.14855 0 0 0 0.01784,-0.06144 0.26956,0.26956 0 0 0 -0.00914,-0.07118 z"
     id="path64" />
  <path
     d="m 2.2536106,0.34304092 c -0.0291,-0.02541 -0.07007,-0.01518 -0.10457,-0.01116 a 0.15572,0.15572 0 0 1 -0.06529,-0.00543 0.27085,0.27085 0 0 1 -0.05526,-0.028 l -0.00516,0.00554 a 0.13647,0.13647 0 0 0 0.09583,0.05331 c 0.04415,2.2e-4 0.08406,-0.02071 0.12684,1.7e-4 0.00902,0.00436 0.01408,-0.00878 0.00761,-0.01443 z"
     id="path66" />
  <metadata
     id="metadata893">
    <rdf:RDF>
      <cc:Work
         rdf:about="">
        <dc:title>Yoga_Asana_Pose_Practice_health</dc:title>
      </cc:Work>
    </rdf:RDF>
  </metadata>
</svg>
