<?xml version="1.0" encoding="UTF-8" standalone="no"?>
<svg
   data-name="Layer 1"
   viewBox="0 0 3.2099254 2.0319881"
   x="0px"
   y="0px"
   version="1.1"
   id="svg28"
   sodipodi:docname="yoga-services-02.svg"
   width="3.2099254"
   height="2.0319881"
   inkscape:version="1.1.2 (0a00cf5339, 2022-02-04)"
   xmlns:inkscape="http://www.inkscape.org/namespaces/inkscape"
   xmlns:sodipodi="http://sodipodi.sourceforge.net/DTD/sodipodi-0.dtd"
   xmlns="http://www.w3.org/2000/svg"
   xmlns:svg="http://www.w3.org/2000/svg"
   xmlns:rdf="http://www.w3.org/1999/02/22-rdf-syntax-ns#"
   xmlns:cc="http://creativecommons.org/ns#"
   xmlns:dc="http://purl.org/dc/elements/1.1/">
  <defs
     id="defs32" />
  <sodipodi:namedview
     id="namedview30"
     pagecolor="#ffffff"
     bordercolor="#666666"
     borderopacity="1.0"
     inkscape:pageshadow="2"
     inkscape:pageopacity="0.0"
     inkscape:pagecheckerboard="0"
     showgrid="false"
     fit-margin-top="0"
     fit-margin-left="0"
     fit-margin-right="0"
     fit-margin-bottom="0"
     inkscape:zoom="102.08"
     inkscape:cx="1.6065831"
     inkscape:cy="1.6408699"
     inkscape:window-width="1920"
     inkscape:window-height="1027"
     inkscape:window-x="0"
     inkscape:window-y="22"
     inkscape:window-maximized="1"
     inkscape:current-layer="svg28" />
  <title
     id="title2">Yoga_Asana_Pose_Practice_health</title>
  <g
     id="g861"
     transform="translate(-0.89505172,-1.4834979)">
    <path
       d="M 1.4311,3.1544 C 1.3055,3.02604 1.21678,3.20756 1.1121,3.26266 1.06877,3.28546 0.86671,3.2951 0.89841,3.38133 A 0.00483,0.00483 0 0 0 0.90762,3.38018 C 0.91134,3.31732 1.08224,3.32553 1.12633,3.30586 1.22106,3.26361 1.28304,3.10367 1.40156,3.18338 1.41963,3.19556 1.4486,3.17229 1.4311,3.1544 Z"
       id="path4" />
    <path
       d="M 2.54854,3.32121 A 0.92951,0.92951 0 0 1 2.20623,3.33663 3.457,3.457 0 0 0 1.8114,3.32307 L 1.75395,3.32479 C 1.74495,3.30243 1.73157,3.28116 1.72434,3.25779 A 0.54532,0.54532 0 0 1 1.71266,3.15212 c 0.05571,-0.0165 0.111,-0.03658 0.16846,-0.052 a 1.03129,1.03129 0 0 1 0.22975,-0.036 0.37338,0.37338 0 0 1 0.14463,0.02669 0.10426,0.10426 0 0 0 0.055,0.011 0.03188,0.03188 0 0 0 0.0384,-0.03418 C 2.33109,2.89987 2.29945,2.7363 2.27653,2.56975 c -6e-4,-0.00434 -0.008,-0.00475 -0.008,0 -3.5e-4,0.07866 -0.01,0.157 -0.00711,0.23577 0.0014,0.03859 0.00514,0.07749 0.00847,0.116 C 2.271,2.9344 2.28457,3.00163 2.28735,3.0373 A 0.68,0.68 0 0 0 2.147,3.004 0.97459,0.97459 0 0 0 1.93623,3.03 C 1.78317,3.06406 1.65014,3.14954 1.49454,3.176 V 3.18091 A 0.51288,0.51288 0 0 0 1.67001,3.16391 0.2363,0.2363 0 0 0 1.68282,3.32737 5.35461,5.35461 0 0 0 0.91974,3.4168 V 3.42294 C 1.23779,3.4286 1.5546,3.38486 1.87274,3.38652 2.01599,3.38727 2.15687,3.40358 2.29946,3.41306 A 0.37143,0.37143 0 0 0 2.57353,3.36575 0.02583,0.02583 0 0 0 2.54854,3.32121 Z"
       id="path6" />
    <path
       d="M 3.6734,3.42584 A 1.11559,1.11559 0 0 1 3.57579,3.08773 3.05778,3.05778 0 0 1 3.53279,2.75797 C 3.52579,2.67053 3.50595,2.23156 3.49722,2.11032 a 0.00435,0.00435 0 0 0 -0.0086,0 C 3.47738,2.22572 3.47154,2.7281 3.48216,2.83897 A 2.41293,2.41293 0 0 0 3.54358,3.2029 0.50071,0.50071 0 0 0 3.65195,3.4469 C 3.66508,3.46011 3.681,3.43919 3.6734,3.42584 Z"
       id="path8" />
    <path
       d="M 4.01287,3.337 A 0.107,0.107 0 0 0 3.91639,3.29012 0.532,0.532 0 0 1 3.82005,3.29119 0.16365,0.16365 0 0 1 3.74472,3.24272 a 1.44594,1.44594 0 0 1 -0.02,-0.289 C 3.72408,2.80852 3.7371,2.66398 3.74534,2.51915 3.75288,2.38641 3.75707,2.25333 3.75594,2.12036 A 0.98225,0.98225 0 0 0 3.69658,1.79743 L 3.69176,1.80013 A 1.71108,1.71108 0 0 1 3.7075,2.31651 C 3.701,2.47339 3.6825,2.62915 3.67097,2.78565 a 1.666,1.666 0 0 0 0.01264,0.42367 c 0.01492,0.08072 0.03231,0.2 0.12907,0.21505 0.01255,0.002 0.01652,-0.01339 0.00877,-0.02094 A 0.23417,0.23417 0 0 1 3.77351,3.33277 0.13772,0.13772 0 0 0 3.80391,3.34346 C 3.87216,3.35846 3.94137,3.31231 4.007,3.34446 4.0118,3.34692 4.01519,3.34082 4.01287,3.337 Z"
       id="path10" />
    <path
       d="M 4.09268,3.46732 C 4.04282,3.4527 3.99526,3.42132 3.94212,3.43784 A 0.53675,0.53675 0 0 1 3.84737,3.47176 C 3.79819,3.4782 3.74903,3.47006 3.69982,3.47276 3.69566,3.47299 3.69603,3.47824 3.69882,3.47988 A 0.27731,0.27731 0 0 0 3.89821,3.50813 0.16534,0.16534 0 0 1 4.02621,3.50379 0.07433,0.07433 0 0 0 4.0924,3.50516 C 4.10764,3.499 4.11053,3.47256 4.09268,3.46732 Z"
       id="path12" />
    <path
       d="M 2.55042,1.71688 A 0.82388,0.82388 0 0 0 2.18337,2.06982 0.347,0.347 0 0 0 2.29463,2.47498 L 2.30055,2.46918 C 2.08048,2.17853 2.31833,1.89753 2.55598,1.72432 2.56085,1.72078 2.55538,1.71364 2.55042,1.71688 Z"
       id="path14" />
    <path
       d="m 3.66374,1.68115 a 0.60382,0.60382 0 0 0 -0.47485,-0.197 1.03533,1.03533 0 0 0 -0.542,0.16869 L 2.64974,1.65793 A 1.04211,1.04211 0 0 1 3.18484,1.54374 0.82376,0.82376 0 0 1 3.4224,1.59342 c 0.07865,0.03 0.14081,0.08878 0.21773,0.11814 A 0.02016,0.02016 0 0 0 3.66374,1.68115 Z"
       id="path16" />
    <path
       d="M 3.01085,1.94939 A 0.28782,0.28782 0 0 0 2.81942,2.00844 0.51054,0.51054 0 0 0 2.55072,1.77209 L 2.54764,1.7774 A 0.74231,0.74231 0 0 1 2.78228,2.04282 0.40408,0.40408 0 0 0 2.68845,2.24976 0.832,0.832 0 0 0 2.63207,2.07932 L 2.62553,2.081 C 2.62668,2.17808 2.64887,2.27449 2.65727,2.37124 A 2.96211,2.96211 0 0 1 2.66621,2.69288 C 2.66183,2.88838 2.62449,3.07988 2.61372,3.27464 A 0.00746,0.00746 0 0 0 2.62795,3.27846 1.43607,1.43607 0 0 0 2.72595,2.69311 2.5684,2.5684 0 0 0 2.70912,2.3687 0.65431,0.65431 0 0 1 2.77576,2.12822 C 2.83301,2.03454 2.92865,2.0135 3.01233,1.95522 Z"
       id="path18" />
    <path
       d="m 3.46984,2.05047 c 0.01271,0.01882 0.03753,0.00722 0.04218,-0.011 A 0.16058,0.16058 0 0 0 3.44552,1.89802 0.31882,0.31882 0 0 0 3.301,1.82859 L 3.29925,1.83511 A 0.20482,0.20482 0 0 1 3.41871,1.93181 0.26834,0.26834 0 0 1 3.43456,1.96806 0.18946,0.18946 0 0 0 3.37733,1.98444 0.20411,0.20411 0 0 1 3.22126,2.00585 0.55952,0.55952 0 0 1 3.076,1.93622 L 3.07162,1.94051 c 0.0511,0.05543 0.08641,0.11174 0.16575,0.129 a 0.24723,0.24723 0 0 0 0.149,-0.02726 0.19243,0.19243 0 0 1 0.03428,0.14786 0.40017,0.40017 0 0 0 -0.0151,0.0696 c -1.1e-4,0.063 0.07849,0.09266 0.07332,0.15387 A 0.01058,0.01058 0 0 0 3.499,2.419 0.06277,0.06277 0 0 0 3.50237,2.35164 0.41658,0.41658 0 0 0 3.47437,2.3155 0.15307,0.15307 0 0 1 3.45651,2.2085 0.16509,0.16509 0 0 0 3.396,2.03868 0.25859,0.25859 0 0 1 3.45529,2.02345 0.17293,0.17293 0 0 0 3.46984,2.05047 Z"
       id="path20" />
    <path
       d="M 3.96344,2.16882 A 0.27345,0.27345 0 0 0 3.93368,2.07063 0.27628,0.27628 0 0 0 3.85256,1.86848 C 3.81627,1.83381 3.74322,1.79773 3.71075,1.85516 3.70833,1.85943 3.71388,1.86422 3.71797,1.86246 3.77585,1.83757 3.83125,1.91056 3.85239,1.95478 A 0.25965,0.25965 0 0 1 3.86399,1.98417 0.20529,0.20529 0 0 0 3.73051,1.93582 c -0.01613,3e-4 -0.015,0.02185 -0.00376,0.02789 0.09268,0.04982 0.17346,0.108 0.17832,0.2226 A 0.22569,0.22569 0 0 1 3.73776,2.41576 C 3.71557,2.42232 3.72912,2.4556 3.75111,2.4491 A 0.28013,0.28013 0 0 0 3.96344,2.16882 Z"
       id="path22" />
  </g>
  <text
     x="-0.89505172"
     y="18.516502"
     fill="#000000"
     font-size="5px"
     font-weight="bold"
     font-family="'Helvetica Neue', Helvetica, Arial-Unicode, Arial, Sans-serif"
     id="text24">Created by Alice Noir</text>
  <text
     x="-0.89505172"
     y="23.516502"
     fill="#000000"
     font-size="5px"
     font-weight="bold"
     font-family="'Helvetica Neue', Helvetica, Arial-Unicode, Arial, Sans-serif"
     id="text26">from the Noun Project</text>
  <metadata
     id="metadata849">
    <rdf:RDF>
      <cc:Work
         rdf:about="">
        <dc:title>Yoga_Asana_Pose_Practice_health</dc:title>
      </cc:Work>
    </rdf:RDF>
  </metadata>
</svg>
