<?xml version="1.0" encoding="UTF-8" standalone="no"?>
<svg
   width="268.84894pt"
   height="857.49945pt"
   version="1.1"
   viewBox="0 0 268.84894 857.49945"
   id="svg40"
   sodipodi:docname="yoga-services-03.svg"
   inkscape:version="1.1.2 (0a00cf5339, 2022-02-04)"
   xmlns:inkscape="http://www.inkscape.org/namespaces/inkscape"
   xmlns:sodipodi="http://sodipodi.sourceforge.net/DTD/sodipodi-0.dtd"
   xmlns="http://www.w3.org/2000/svg"
   xmlns:svg="http://www.w3.org/2000/svg">
  <defs
     id="defs44" />
  <sodipodi:namedview
     id="namedview42"
     pagecolor="#ffffff"
     bordercolor="#666666"
     borderopacity="1.0"
     inkscape:pageshadow="2"
     inkscape:pageopacity="0.0"
     inkscape:pagecheckerboard="0"
     inkscape:document-units="pt"
     showgrid="false"
     fit-margin-top="0"
     fit-margin-left="0"
     fit-margin-right="0"
     fit-margin-bottom="0"
     inkscape:zoom="0.39875"
     inkscape:cx="178.05643"
     inkscape:cy="570.53292"
     inkscape:window-width="1920"
     inkscape:window-height="1027"
     inkscape:window-x="0"
     inkscape:window-y="22"
     inkscape:window-maximized="1"
     inkscape:current-layer="svg40" />
  <g
     id="g880"
     transform="translate(-465.56649,-171.4121)">
    <path
       d="m 663.09,223.94 c -2.9648,-16.664 -3.4688,-33.672 -1.4883,-50.48 l -0.96094,-0.12891 c -4.5859,13.75 -7.1328,28.102 -7.5547,42.594 0.46484,12.539 5.9453,24.223 6.8438,36.758 0.15234,2.1602 2.8945,2.0469 3.7539,0.50781 3.5547,-9.4688 3.3438,-19.938 -0.59375,-29.25 z"
       id="path2" />
    <path
       d="m 661.52,259.85 h -0.82031 c -2.5742,22.531 -10.297,44.02 -12.754,66.652 -1.5664,14.418 -1.6797,29.648 -3.9062,44.27 l -0.19531,-0.0156 h -0.004 c -9.6758,2.3242 -17.422,9.5625 -20.398,19.062 -1.4102,4.3828 -1.9102,9.01171 -1.4648,13.59801 0.65234,4.9336 3.8789,8.6836 4.6016,13.63299 l 0.0312,0.082 c -17.43,26.914 -27.707,57.828 -29.852,89.824 0.0352,2.125 2.9883,1.7422 3.4258,0.0156 10.98,-43.359 30.602,-82.801 44.766,-125.04 v -0.004 c 5.9492,-18.602 9.5391,-37.875 10.68,-57.375 3.2812,-21.426 5.2461,-43.035 5.8906,-64.703 z m -30.434,148.51 h -0.004 c -1.7891,-2.9961 -2.7617,-6.4102 -2.8164,-9.9023 0.44141,-7.2539 3.793,-14.027 9.2969,-18.777 2.1992,-1.5234 4.1836,-3.3438 5.8867,-5.4062 -1.2656,7.7578 -3.5312,15.316 -6.7344,22.496 z"
       id="path4" />
    <path
       d="m 707.56,311.78 c -1.2891,-17.508 -5.1445,-34.719 -6.5312,-52.215 0.0117,-13.238 -1.1875,-26.449 -3.5898,-39.469 -2.5859,-8.0352 -7.0938,-15.32 -13.129,-21.223 l -1.4375,-4.4219 c -3.1484,-8.3164 -9.6016,-14.668 -12.648,-23.039 l -0.89062,0.23828 c 2.082,15.324 9.6445,28.82 11.52,44.504 2.0312,17.074 0.90625,34.23 3.6016,51.266 0.0977,0.58594 0.60547,1.0156 1.1992,1.0156 0.59373,0 1.1016,-0.42969 1.1992,-1.0156 2.8359,-17.238 3.0547,-34.801 0.65625,-52.105 l -0.44531,-2.9453 c 4.4492,18.625 7.0781,37.641 7.8477,56.777 3.3945,29.426 7.6445,58.586 8.9922,88.188 h 1.4844 c 1.6367,-15.125 2.3633,-30.34 2.1719,-45.555 z"
       id="path6" />
    <path
       d="m 718.38,387.04 c -3.7578,-4.8164 -8.832,-8.4414 -14.609,-10.434 -7.1055,-2.8906 -14.863,-3.8047 -22.445,-2.6406 2.3047,-12.172 3.9883,-24.449 5.0391,-36.793 1.2852,-19.168 -3.0664,-38.961 -0.40234,-57.824 l -0.59375,-0.16016 0.004,0.004 c -3.3398,16.867 -4.8633,34.043 -4.5391,51.23 -1.9883,23.02 -7.3516,45.434 -10.098,68.371 h 0.004 c -3.8633,23.395 -9.5,46.457 -16.867,68.988 -6.6094,16.902 -9.8008,34.949 -9.3906,53.09 0.0937,0.62109 0.625,1.0781 1.2539,1.0781 0.625,0 1.1562,-0.45703 1.25,-1.0781 3.3516,-15.859 7.6328,-31.516 12.816,-46.875 -1.0039,9.0859 -0.42578,18.277 1.707,27.168 5.8477,15.359 12.781,30.281 20.75,44.652 0.26562,0.60156 0.92969,0.92578 1.5703,0.76172 0.63672,-0.16797 1.0625,-0.76953 1.0039,-1.4258 -3.9258,-14 -9.0352,-27.637 -15.277,-40.766 -3.3516,-16.59 -4.6484,-33.527 -3.8594,-50.434 l 2.9297,-10.84 c 7.7461,0.28906 16.812,-8.1992 21.711,-12.945 v -0.004 c 3.25,-3.2852 6.0234,-7.0078 8.2422,-11.062 3.8516,-6.1016 9.2148,-11.098 15.57,-14.508 l -0.42578,-1.0625 c -10.176,2.0547 -19.129,8.0547 -24.898,16.688 -4.2812,5.0742 -9.2227,9.5508 -14.699,13.312 l -3.6016,2.1836 h 0.004 c 3.0508,-11.855 5.3477,-23.895 6.8828,-36.039 0.62109,-5.3438 1.4219,-10.668 2.2852,-15.98 2.625,-0.44531 4.832,-1.832 7.6797,-2.0977 5.3008,-0.0586 10.555,1.0469 15.387,3.2344 9.9023,4.3125 17.531,12.598 21.012,22.824 l 0.57422,-0.23828 c -2.793,-6.8242 -1.543,-14.062 -5.9688,-20.379 z"
       id="path8" />
    <path
       d="m 717.46,476.84 c -4.9141,7.9961 -17.133,1.6641 -23.16,-1.4531 -7.625,-2.9688 -14.547,-7.5039 -20.32,-13.309 l -0.49609,0.37109 c 6.2383,8.9805 40.641,38.012 45.629,15.086 z"
       id="path10" />
    <path
       d="m 728.33,428.01 c -3.1523,0.41797 -6.3281,0.62891 -9.5117,0.63281 -2.582,-0.34375 -5.207,-0.0977 -7.6797,0.71875 -0.64453,0.28125 -1.0625,0.91797 -1.0664,1.6172 -0.004,0.70312 0.40625,1.3438 1.0469,1.6328 5.6797,3.2539 11.684,-2.3672 17.348,-3.5273 z"
       id="path12" />
    <path
       d="m 723.57,420.72 c -1.1992,-3.0156 -5.7227,-2.1211 -8.1094,-1.418 -2.9883,0.82031 -5.707,2.4062 -7.8906,4.6055 l 0.53516,0.54688 c 2.1602,-1.3086 4.6484,-1.9727 7.1719,-1.918 1.207,-0.125 2.4219,-0.0977 3.6211,0.0742 l 2.6406,0.71875 -0.004,0.004 c 0.67188,0.0703 1.3281,-0.21093 1.7422,-0.74218 0.4141,-0.53125 0.52734,-1.2383 0.29297,-1.87111 z"
       id="path14" />
    <path
       d="m 732,443.91 c -1.8516,-3.0156 -2.7891,-6.5 -2.6953,-10.035 h -0.82422 c -0.59375,2.8438 -0.66406,5.7695 -0.21094,8.6406 0.64453,2.1602 2.4805,3.8945 2.7539,6.1094 l -0.004,-0.004 c -3.2617,0.63281 -6.3242,2.0312 -8.9375,4.082 -0.55078,0.43359 -0.75,1.1836 -0.48828,1.8359 0.26562,0.65234 0.92578,1.0508 1.625,0.98438 l 3.0664,-0.53906 -0.48047,1.8281 -1.1875,4.4961 c -1.6406,0.0352 -3.2773,0.16406 -4.9023,0.39062 -1.793,0.14844 -5.4805,1.6602 -7.1484,0.875 -1.0469,-0.49609 -1.7383,1.1719 -0.6875,1.668 l 3.2812,2.0742 h -0.004 c 1.5352,0.73438 3.207,1.1289 4.9062,1.1641 2.6719,0.0391 6.3945,-0.41016 7.4414,-3.3086 v -0.004 c 0.22266,-0.57031 0.17188,-1.207 -0.13281,-1.7383 -0.30469,-0.53125 -0.83594,-0.89453 -1.4414,-0.98828 l -0.45703,-0.0547 1.7891,-3.5508 c 1.2148,-1.3516 2.3594,-2.7656 3.4297,-4.2344 2.2383,-1.0234 3.9531,-2.5508 3.6992,-4.8945 -0.36328,-1.7812 -1.1875,-3.4375 -2.3906,-4.7969 z"
       id="path16" />
    <path
       d="m 570.67,616.31 c 11.562,-26.863 18.586,-55.461 20.793,-84.625 l -0.58594,-0.15625 c -3.707,12.27 -9.418,23.797 -12.926,36.168 -3.0117,10.613 -5.6289,21.32 -9.1719,31.777 -6.5859,22.703 -23.184,41.152 -45.066,50.094 -0.63281,0.26953 -0.97656,0.96484 -0.80469,1.6289 0.17188,0.66797 0.80469,1.1094 1.4922,1.043 3.2539,-0.21484 6.4805,-0.70703 9.6523,-1.4727 l 0.48047,1.3438 c 3.5391,6.0547 4.7148,12.871 8.8555,18.637 v 0.004 c 5.1016,6.6484 11.566,12.129 18.957,16.078 l 0.875,-0.85938 h 0.004 c -6.1445,-6.9102 -11.285,-14.652 -15.281,-22.992 -1.5703,-5.1211 -3.793,-10.016 -6.6133,-14.57 13.707,-6.3047 24.289,-17.879 29.34,-32.098 z"
       id="path18" />
    <path
       d="m 659.73,534.37 c -0.125,-0.80469 -0.81641,-1.4023 -1.6289,-1.4062 -0.81641,0 -1.5117,0.58984 -1.6406,1.3945 -2.4648,13.707 -6.6211,26.703 -21.949,29.891 l -0.004,-0.004 c -13.207,2.7109 -26.875,-1.5859 -36.156,-11.367 l -0.70312,0.52344 c 4.082,6.8984 10.281,12.293 17.676,15.387 7.3945,3.0898 15.59,3.707 23.363,1.7617 7.5938,-1.9961 14.082,-6.9336 18.031,-13.723 3.949,-6.7894 5.0312,-14.871 3.0117,-22.457 z"
       id="path20" />
    <path
       d="m 711.27,569.42 c -4.1055,-11.496 -10.145,-22.207 -17.855,-31.668 -5.2422,-8.5938 -18.32,-45.457 -7.7148,-55.613 l -0.5,-0.66406 c -18.621,14.398 -1.5078,44.973 7.2578,60.035 v -0.004 c 7.0156,8.5586 10.836,19.289 10.801,30.352 -0.0312,11.066 -3.9141,21.773 -10.98,30.285 -3.5312,4.0352 -7.6133,7.5859 -11.281,11.363 -31.68,10.926 -64.586,-14.734 -94.652,-20.918 l -0.31641,1.1875 c 11.133,4.293 20.203,12.562 30.992,17.629 9.6484,4.6406 19.77,8.2227 30.188,10.688 8.8906,2.4336 18.281,2.3711 27.141,-0.17578 -1.8711,3.1133 -3.0547,6.5859 -3.4727,10.191 -0.17188,1.5039 2.1758,2.2734 2.668,0.71875 4.125,-13.156 20.793,-20.359 29.102,-31.062 7.6836,-8.8867 10.863,-20.809 8.625,-32.344 z"
       id="path22" />
    <path
       d="m 708.31,790.42 c -6.3359,-28.527 -42.48,-46.242 -65.211,-60.027 v 0.004 c -15.055,-9.2383 -30.762,-17.371 -46.992,-24.336 l -3.4961,-1.3867 c 6,-6.3359 12.5,-12.176 19.441,-17.461 8.3281,-5.5508 17.922,-9.375 26.605,-14.344 v 0.004 c 11.738,-6.7461 20.629,-17.523 25.016,-30.332 0.625,-1.3125 -1.2852,-2.3398 -2.1602,-1.2578 v 0.004 c -10.586,12.66 -23.301,23.379 -37.566,31.68 -12.156,8.8633 -22.965,19.438 -32.098,31.391 -18.918,-5.707 -37.336,-12.961 -55.062,-21.691 l -0.67969,0.85156 c 27.48,17.805 56.332,33.402 86.281,46.641 16.148,8.9805 31.738,18.926 46.691,29.785 13.754,8.6016 26.148,19.203 36.781,31.453 0.76953,1.0352 2.7578,0.41016 2.4492,-0.97656 z"
       id="path24" />
    <path
       d="m 656.93,822.13 c -3.5547,-15.285 -21.633,-19.715 -34.777,-23.395 l -0.004,0.004 c -25.285,-5.4922 -50.23,-12.445 -74.707,-20.828 -25.234,-7.4258 -48.004,-21.5 -65.926,-40.75 -8.4414,-14.305 -10.176,-31.594 -4.7461,-47.293 5.4297,-15.695 17.477,-28.219 32.949,-34.254 l -0.28906,-0.71875 c -10.18,2.0625 -19.562,6.9805 -27.051,14.18 -7.4883,7.1992 -12.773,16.379 -15.234,26.469 -2.7812,11.809 -1.8711,24.184 2.6055,35.457 4.4766,11.27 12.309,20.898 22.434,27.574 22.754,17.141 48.625,29.688 76.176,36.934 13.082,3.6758 26.641,5.8672 39.84,9.168 10.891,2.7227 39.383,6.2383 45.324,18.332 0.81641,1.6875 3.8906,1.2188 3.4062,-0.87891 z"
       id="path26" />
    <path
       d="m 654,828.14 c -7.3398,17.492 -23.52,29.762 -32.301,46.754 -7.293,16.461 -11.172,34.23 -11.395,52.234 -2.0625,22.621 -8.0508,44.707 -17.707,65.266 -4.1797,6.6406 -4.625,14.973 -1.1836,22.023 0.53125,0.9609 1.832,0.027 1.5586,-0.875 -2.7305,-9.0352 5.4805,-16.996 9.332,-24.035 l 0.004,0.004 c 3.2266,-6.4141 5.9297,-13.074 8.0898,-19.918 5.2891,-16.227 8.418,-33.082 9.2969,-50.125 1.0273,-17.855 6.0742,-35.25 14.77,-50.879 9.0195,-12.129 15.766,-25.789 19.918,-40.32 z"
       id="path28" />
    <path
       d="m 704.4,1017.3 c -15.574,8.1211 -33.859,1.8438 -50.543,1.6953 -18.855,-0.1719 -37.441,1.3086 -56.312,0.5859 l -0.10547,0.3946 c 21.988,6.9844 45.129,9.6328 68.129,7.8008 11.59,1.0352 33.277,4.1562 40.723,-7.9688 0.73047,-1.2031 -0.29687,-3.3359 -1.8906,-2.5078 z"
       id="path30" />
    <path
       d="m 711.71,811.56 h -0.71875 c -6.168,22.074 -16.922,42.598 -31.555,60.238 -10.414,17.816 -19.211,36.531 -26.281,55.922 -6.9609,17.465 -33.867,62.77 -3.793,73.016 0.51172,0.1914 1.082,-0.016 1.3555,-0.4844 0.27344,-0.46873 0.16797,-1.06638 -0.25,-1.41408 -16.914,-13.562 -0.33984,-40.527 5.7617,-56.203 6.8359,-17.562 13.629,-35.367 21.965,-52.289 12.527,-25.434 36.336,-48.602 33.516,-78.785 z"
       id="path32" />
    <path
       d="m 699.82,1011.3 c -7.375,-2.3711 -15.004,-3.8555 -22.727,-4.4258 -6.0664,-1.5742 -12.293,-2.4609 -18.555,-2.6406 v 0.8203 c 7.1289,0.7852 13.441,6.3828 20.449,8.207 v 0 c 6.6211,2.6445 13.91,3.1172 20.816,1.3438 0.66016,-0.2852 1.0898,-0.9297 1.0938,-1.6484 0,-0.7148 -0.42188,-1.3672 -1.0781,-1.6523 z"
       id="path34" />
    <path
       d="m 717.34,812.04 c -8.4805,33.625 -21.898,65.805 -39.824,95.484 -10.48,25.746 -33.359,54.691 -27.359,84.012 h -0.004 c 0.0898,0.53906 0.55469,0.9375 1.1016,0.9375 0.54688,0 1.0117,-0.39844 1.0977,-0.9375 9.1758,-33.141 21.738,-65.254 37.488,-95.824 16.016,-25.207 25.695,-53.914 28.219,-83.676 z"
       id="path36" />
    <path
       d="m 625.92,650.67 c -9.0547,3.9062 -18.523,6.7539 -27.512,10.828 l -0.004,0.004 c -7.8242,4.0273 -15.094,9.043 -21.637,14.93 l 0.35156,0.625 c 8.8984,-3.8008 18.023,-7.0469 27.32,-9.7148 8.4023,-3.2344 16.324,-7.5938 23.555,-12.961 0.80859,-0.66406 1.0234,-1.8086 0.51172,-2.7227 -0.50781,-0.91016 -1.5977,-1.3281 -2.5859,-0.98828 z"
       id="path38" />
  </g>
</svg>
